<mxfile host="Electron" agent="Mozilla/5.0 (Macintosh; Intel Mac OS X 10_15_7) AppleWebKit/537.36 (KHTML, like Gecko) draw.io/26.0.9 Chrome/128.0.6613.186 Electron/32.2.5 Safari/537.36" version="26.0.9">
  <diagram id="RXcWit5hHr6IPpoLcjqJ" name="Main Schema">
    <mxGraphModel dx="1114" dy="820" grid="1" gridSize="10" guides="1" tooltips="1" connect="1" arrows="1" fold="1" page="1" pageScale="1" pageWidth="827" pageHeight="1169" math="0" shadow="0">
      <root>
        <mxCell id="0" />
        <mxCell id="1" parent="0" />
        <mxCell id="003" value="INTERNET" parent="0" />
        <mxCell id="INTERNET" value="" style="group;noLabel=1;" parent="003" vertex="1">
          <mxGeometry x="165" y="60" width="100" height="590" as="geometry" />
        </mxCell>
        <object label="Internet" id="0101">
          <mxCell style="verticalAlign=middle;align=center;vsdxID=5629;rotation=270;fillColor=#FDEBDD;gradientColor=none;shape=stencil(nZBLDsIwEENPM1sUMoILlHIBThCRQEaEpErD9/SkNUhVFyy6G9vPGsnETe9N50irvuR0cQ+xxRPvSGuJ3mUp9SJuiZtTyu6c0y1a6M5UUqvRcRad9UBrZfLxIG8Hb7viDWz0ruk+/HsiVYhe376C3gMNEifoL1wE/0EXgrP39RgXwVYSAgad5vMFq4X1uf0A);strokeColor=#9c4a09;spacingTop=-2;spacingBottom=-2;spacingLeft=-2;spacingRight=-2;labelBackgroundColor=none;rounded=1;html=1;whiteSpace=wrap;" parent="INTERNET" vertex="1">
            <mxGeometry x="-275" y="280" width="585" height="25" as="geometry" />
          </mxCell>
        </object>
        <mxCell id="004" value="WAN" parent="0" />
        <mxCell id="TRANSPORT-WAN" value="" style="group;noLabel=1;" parent="004" vertex="1">
          <mxGeometry x="270" y="60" width="100" height="590" as="geometry" />
        </mxCell>
        <object label="Транспортная сеть" id="0103">
          <mxCell style="verticalAlign=middle;align=center;vsdxID=5629;rotation=270;fillColor=#ffcc66;gradientColor=none;shape=stencil(nZBLDsIwEENPM1sUMoILlHIBThCRQEaEpErD9/SkNUhVFyy6G9vPGsnETe9N50irvuR0cQ+xxRPvSGuJ3mUp9SJuiZtTyu6c0y1a6M5UUqvRcRad9UBrZfLxIG8Hb7viDWz0ruk+/HsiVYhe376C3gMNEifoL1wE/0EXgrP39RgXwVYSAgad5vMFq4X1uf0A);strokeColor=#6a5628;spacingTop=-2;spacingBottom=-2;spacingLeft=-2;spacingRight=-2;labelBackgroundColor=none;rounded=1;html=1;whiteSpace=wrap;" parent="TRANSPORT-WAN" vertex="1">
            <mxGeometry x="-275" y="280" width="585" height="25" as="geometry" />
          </mxCell>
        </object>
        <mxCell id="100" value="Links" parent="0" />
      <object id="flix.dc_region.russia" label="Регион Россия" title="Регион Россия" description="Регион доступности Россия ООО Фликс" OID="flix.dc_region.russia" schema="seaf.ta.services.dc_region">
  <mxCell style="swimlane;whiteSpace=wrap;html=1;fillColor=#CCE5FF;" vertex="1" parent="1">
    <mxGeometry x="20" y="30" width="760" height="630" as="geometry" />
  </mxCell>
</object><object id="flix.dc_az.moscow" label="Зона доступности Москва" title="Зона доступности Москва" description="Зона доступности Москва" region="flix.dc_region.russia" az_vendor="Фликс" availabilityzone_id="dc_az.moscow" OID="flix.dc_az.moscow" schema="seaf.ta.services.dc_az">
  <mxCell style="swimlane;whiteSpace=wrap;html=1;fillColor=#CCFFE6;" vertex="1" parent="flix.dc_region.russia">
    <mxGeometry x="390" y="30" width="360" height="260" as="geometry" />
  </mxCell>
</object><object id="flix.office.hq" label="Головной офис" title="Головной офис" description="Головной офис компании" address="Берёзовый бульвар, д.14" region="flix.dc_region.russia" OID="flix.office.hq" schema="seaf.ta.services.office" link="data:page/id,flix.office.hq_page">
  <mxCell style="shape=mxgraph.cisco.buildings.generic_building;html=1;pointerEvents=1;dashed=0;fillColor=#036897;strokeColor=#ffffff;strokeWidth=2;verticalLabelPosition=bottom;verticalAlign=top;align=center;outlineConnect=0;" vertex="1" parent="flix.dc_region.russia">
    <mxGeometry x="20" y="40" width="120" height="60" as="geometry" />
  </mxCell>
</object><object id="flix.dc.01" label="Sber Cloud DC" title="Sber Cloud DC" description="Sber Cloud Advanced" dc_vendor="Sber" dc_type="Основной" dc_address="Огородный проезд" dc_rack_qty="5" dc_tier="3" dc_ownership="Аренда" availabilityzone_id="flix.dc_az.moscow" OID="flix.dc.01" schema="seaf.ta.services.dc" link="data:page/id,flix.dc.01_page">
  <mxCell style="shape=mxgraph.cisco.buildings.branch_office;html=1;pointerEvents=1;dashed=0;fillColor=#036897;strokeColor=#ffffff;strokeWidth=2;verticalLabelPosition=bottom;verticalAlign=top;align=center;outlineConnect=0;" vertex="1" parent="flix.dc_az.moscow">
    <mxGeometry x="230" y="30" width="120" height="60" as="geometry" />
  </mxCell>
</object><mxCell id="flix.network_segment.dc.internet_0" value="" style="group;noLabel=1;" parent="003" vertex="1">
    <mxGeometry x="1" y="1" width="1" height="1" as="geometry" />            
</mxCell><mxCell id="flix.network_segment.internet_0" value="" style="group;noLabel=1;" parent="003" vertex="1">
    <mxGeometry x="1" y="1" width="1" height="1" as="geometry" />            
</mxCell><mxCell id="flix.network_segment_dc.transport_0" value="" style="group;noLabel=1;" parent="004" vertex="1">
  <mxGeometry x="1" y="1" width="1" height="1" as="geometry" />            
</mxCell><mxCell id="flix.network_segment.transport_0" value="" style="group;noLabel=1;" parent="004" vertex="1">
  <mxGeometry x="1" y="1" width="1" height="1" as="geometry" />            
</mxCell><mxCell id="flix.wan.dc.isp.01_0" value="" style="group;noLabel=1;" parent="INTERNET" vertex="1">
    <mxGeometry x="10" y="5" width="110" height="60" as="geometry" />            
</mxCell><mxCell id="flix.wan.dc.isp.01_1" value="&lt;div style=&quot;font-size: 9px;&quot;&gt;&lt;font style=&quot;font-size: 9px; font-family: Calibri; color: rgb(255, 255, 255); direction: ltr; letter-spacing: 0px; line-height: 120%; opacity: 1;&quot;&gt;ISP&lt;br style=&quot;font-size: 9px;&quot;&gt;&lt;/font&gt;&lt;font style=&quot;font-size: 9px; font-family: Calibri; color: rgb(255, 255, 255); direction: ltr; letter-spacing: 0px; line-height: 120%; opacity: 1;&quot;&gt;ISP Guest&lt;/font&gt;&lt;font style=&quot;font-size: 9px; font-family: Calibri; color: rgb(255, 255, 255); direction: ltr; letter-spacing: 0px; line-height: 120%; opacity: 1;&quot;&gt;&lt;br style=&quot;font-size: 9px;&quot;&gt;&lt;/font&gt;&lt;/div&gt;" style="verticalAlign=middle;align=center;vsdxID=5657;fillColor=#612621;gradientColor=none;shape=stencil(nZBLDsIwEENPM1sUMoILlHIBThCRQEaEpErD9/SkNUhVFyy6G9vPGsnETe9N50irvuR0cQ+xxRPvSGuJ3mUp9SJuiZtTyu6c0y1a6M5UUqvRcRad9UBrZfLxIG8Hb7viDWz0ruk+/HsiVYhe376C3gMNEifoL1wE/0EXgrP39RgXwVYSAgad5vMFq4X1uf0A);strokeColor=#6a5628;spacingTop=-2;spacingBottom=-2;spacingLeft=-2;spacingRight=-2;labelBackgroundColor=none;rounded=1;html=1;whiteSpace=wrap;horizontal=1;fontSize=9;" vertex="1" parent="flix.wan.dc.isp.01_0">
    <mxGeometry x="0" y="5" width="66" height="40" as="geometry" />
</mxCell><object label="" id="flix.wan.dc.isp.01" title="ISP Guest" provider="Beeline" bandwidth="1000" wan_ip="10.20.11.0/24" description="Сеть ISP провайдера гостевой сети" type="WAN" segment="flix.network_segment.dc.internet" OID="flix.wan.dc.isp.01" schema="seaf.ta.services.network">
    <mxCell style="shape=mxgraph.cisco.routers.router;sketch=0;html=1;pointerEvents=1;dashed=0;fillColor=#036897;strokeColor=#ffffff;strokeWidth=2;verticalLabelPosition=bottom;verticalAlign=top;align=center;outlineConnect=0;labelBackgroundColor=default;fontSize=12;fontColor=#FFFFFF;" vertex="1" parent="flix.wan.dc.isp.01_0">
      <mxGeometry x="60" y="25" width="28" height="22" as="geometry" />
    </mxCell>
</object><mxCell id="flix.wan.dc.isp.01_3" value="&lt;div style=&quot;font-size: 1px&quot;&gt;&lt;p style=&quot;align:center;margin-left:0;margin-right:0;margin-top:0px;margin-bottom:0px;text-indent:0;valign:middle;direction:ltr;&quot;&gt;&lt;font style=&quot;font-size: 7.06px; font-family: Calibri; color: rgb(0, 0, 0); direction: ltr; letter-spacing: 0px; line-height: 100%; opacity: 1;&quot;&gt;&lt;b&gt;ISP Guest Router&lt;/b&gt;&lt;/font&gt;&lt;font style=&quot;font-size: 7.06px; font-family: Calibri; color: rgb(0, 0, 0); direction: ltr; letter-spacing: 0px; line-height: 100%; opacity: 1;&quot;&gt;&lt;br&gt;&lt;/font&gt;&lt;/p&gt;&lt;/div&gt;" style="verticalAlign=middle;align=center;vsdxID=12895;fillColor=#ffff00;gradientColor=none;fillOpacity=40;shape=stencil(nZBLDoAgDERP0z3SIyjew0SURgSD+Lu9kMZoXLhwN9O+tukAlrNpJg1SzDH4QW/URgNYgZTkjA4UkwJUgGXng+6DX1zLfmoymdXo17xh5zmRJ6Q42BWCfc2oJfdAr+Yv+AP9Cb7OJ3H/2JG1HNGz/84klThPVCc=);strokeColor=none;spacingTop=-3;spacingBottom=-3;spacingLeft=-3;spacingRight=-3;labelBackgroundColor=none;rounded=0;html=1;whiteSpace=wrap;" vertex="1" parent="flix.wan.dc.isp.01_0">
    <mxGeometry x="70" y="45" width="39" height="18" as="geometry" />
</mxCell><mxCell id="flix.wan.office.isp.guest_0" value="" style="group;noLabel=1;" parent="INTERNET" vertex="1">
    <mxGeometry x="10" y="5" width="110" height="60" as="geometry" />            
</mxCell><mxCell id="flix.wan.office.isp.guest_1" value="&lt;div style=&quot;font-size: 9px;&quot;&gt;&lt;font style=&quot;font-size: 9px; font-family: Calibri; color: rgb(255, 255, 255); direction: ltr; letter-spacing: 0px; line-height: 120%; opacity: 1;&quot;&gt;ISP&lt;br style=&quot;font-size: 9px;&quot;&gt;&lt;/font&gt;&lt;font style=&quot;font-size: 9px; font-family: Calibri; color: rgb(255, 255, 255); direction: ltr; letter-spacing: 0px; line-height: 120%; opacity: 1;&quot;&gt;ISP Guest&lt;/font&gt;&lt;font style=&quot;font-size: 9px; font-family: Calibri; color: rgb(255, 255, 255); direction: ltr; letter-spacing: 0px; line-height: 120%; opacity: 1;&quot;&gt;&lt;br style=&quot;font-size: 9px;&quot;&gt;&lt;/font&gt;&lt;/div&gt;" style="verticalAlign=middle;align=center;vsdxID=5657;fillColor=#612621;gradientColor=none;shape=stencil(nZBLDsIwEENPM1sUMoILlHIBThCRQEaEpErD9/SkNUhVFyy6G9vPGsnETe9N50irvuR0cQ+xxRPvSGuJ3mUp9SJuiZtTyu6c0y1a6M5UUqvRcRad9UBrZfLxIG8Hb7viDWz0ruk+/HsiVYhe376C3gMNEifoL1wE/0EXgrP39RgXwVYSAgad5vMFq4X1uf0A);strokeColor=#6a5628;spacingTop=-2;spacingBottom=-2;spacingLeft=-2;spacingRight=-2;labelBackgroundColor=none;rounded=1;html=1;whiteSpace=wrap;horizontal=1;fontSize=9;" vertex="1" parent="flix.wan.office.isp.guest_0">
    <mxGeometry x="0" y="5" width="66" height="40" as="geometry" />
</mxCell><object label="" id="flix.wan.office.isp.guest" title="ISP Guest" provider="МТС" bandwidth="1000" wan_ip="10.20.10.0/24" description="Сеть ISP провайдера гостевой сети" type="WAN" segment="flix.network_segment.internet" OID="flix.wan.office.isp.guest" schema="seaf.ta.services.network">
    <mxCell style="shape=mxgraph.cisco.routers.router;sketch=0;html=1;pointerEvents=1;dashed=0;fillColor=#036897;strokeColor=#ffffff;strokeWidth=2;verticalLabelPosition=bottom;verticalAlign=top;align=center;outlineConnect=0;labelBackgroundColor=default;fontSize=12;fontColor=#FFFFFF;" vertex="1" parent="flix.wan.office.isp.guest_0">
      <mxGeometry x="60" y="25" width="28" height="22" as="geometry" />
    </mxCell>
</object><mxCell id="flix.wan.office.isp.guest_3" value="&lt;div style=&quot;font-size: 1px&quot;&gt;&lt;p style=&quot;align:center;margin-left:0;margin-right:0;margin-top:0px;margin-bottom:0px;text-indent:0;valign:middle;direction:ltr;&quot;&gt;&lt;font style=&quot;font-size: 7.06px; font-family: Calibri; color: rgb(0, 0, 0); direction: ltr; letter-spacing: 0px; line-height: 100%; opacity: 1;&quot;&gt;&lt;b&gt;ISP Guest Router&lt;/b&gt;&lt;/font&gt;&lt;font style=&quot;font-size: 7.06px; font-family: Calibri; color: rgb(0, 0, 0); direction: ltr; letter-spacing: 0px; line-height: 100%; opacity: 1;&quot;&gt;&lt;br&gt;&lt;/font&gt;&lt;/p&gt;&lt;/div&gt;" style="verticalAlign=middle;align=center;vsdxID=12895;fillColor=#ffff00;gradientColor=none;fillOpacity=40;shape=stencil(nZBLDoAgDERP0z3SIyjew0SURgSD+Lu9kMZoXLhwN9O+tukAlrNpJg1SzDH4QW/URgNYgZTkjA4UkwJUgGXng+6DX1zLfmoymdXo17xh5zmRJ6Q42BWCfc2oJfdAr+Yv+AP9Cb7OJ3H/2JG1HNGz/84klThPVCc=);strokeColor=none;spacingTop=-3;spacingBottom=-3;spacingLeft=-3;spacingRight=-3;labelBackgroundColor=none;rounded=0;html=1;whiteSpace=wrap;" vertex="1" parent="flix.wan.office.isp.guest_0">
    <mxGeometry x="70" y="45" width="39" height="18" as="geometry" />
</mxCell><mxCell id="flix.wan.office.isp.01_0" value="" style="group;noLabel=1;" parent="INTERNET" vertex="1">
    <mxGeometry x="10" y="95" width="110" height="60" as="geometry" />            
</mxCell><mxCell id="flix.wan.office.isp.01_1" value="&lt;div style=&quot;font-size: 9px;&quot;&gt;&lt;font style=&quot;font-size: 9px; font-family: Calibri; color: rgb(255, 255, 255); direction: ltr; letter-spacing: 0px; line-height: 120%; opacity: 1;&quot;&gt;ISP&lt;br style=&quot;font-size: 9px;&quot;&gt;&lt;/font&gt;&lt;font style=&quot;font-size: 9px; font-family: Calibri; color: rgb(255, 255, 255); direction: ltr; letter-spacing: 0px; line-height: 120%; opacity: 1;&quot;&gt;ISP01&lt;/font&gt;&lt;font style=&quot;font-size: 9px; font-family: Calibri; color: rgb(255, 255, 255); direction: ltr; letter-spacing: 0px; line-height: 120%; opacity: 1;&quot;&gt;&lt;br style=&quot;font-size: 9px;&quot;&gt;&lt;/font&gt;&lt;/div&gt;" style="verticalAlign=middle;align=center;vsdxID=5657;fillColor=#612621;gradientColor=none;shape=stencil(nZBLDsIwEENPM1sUMoILlHIBThCRQEaEpErD9/SkNUhVFyy6G9vPGsnETe9N50irvuR0cQ+xxRPvSGuJ3mUp9SJuiZtTyu6c0y1a6M5UUqvRcRad9UBrZfLxIG8Hb7viDWz0ruk+/HsiVYhe376C3gMNEifoL1wE/0EXgrP39RgXwVYSAgad5vMFq4X1uf0A);strokeColor=#6a5628;spacingTop=-2;spacingBottom=-2;spacingLeft=-2;spacingRight=-2;labelBackgroundColor=none;rounded=1;html=1;whiteSpace=wrap;horizontal=1;fontSize=9;" vertex="1" parent="flix.wan.office.isp.01_0">
    <mxGeometry x="0" y="5" width="66" height="40" as="geometry" />
</mxCell><object label="" id="flix.wan.office.isp.01" title="ISP01" provider="МТС" bandwidth="1000" wan_ip="10.20.11.0/24" description="Сеть ISP провайдера основного интернет канала" type="WAN" segment="flix.network_segment.internet" OID="flix.wan.office.isp.01" schema="seaf.ta.services.network">
    <mxCell style="shape=mxgraph.cisco.routers.router;sketch=0;html=1;pointerEvents=1;dashed=0;fillColor=#036897;strokeColor=#ffffff;strokeWidth=2;verticalLabelPosition=bottom;verticalAlign=top;align=center;outlineConnect=0;labelBackgroundColor=default;fontSize=12;fontColor=#FFFFFF;" vertex="1" parent="flix.wan.office.isp.01_0">
      <mxGeometry x="60" y="25" width="28" height="22" as="geometry" />
    </mxCell>
</object><mxCell id="flix.wan.office.isp.01_3" value="&lt;div style=&quot;font-size: 1px&quot;&gt;&lt;p style=&quot;align:center;margin-left:0;margin-right:0;margin-top:0px;margin-bottom:0px;text-indent:0;valign:middle;direction:ltr;&quot;&gt;&lt;font style=&quot;font-size: 7.06px; font-family: Calibri; color: rgb(0, 0, 0); direction: ltr; letter-spacing: 0px; line-height: 100%; opacity: 1;&quot;&gt;&lt;b&gt;ISP01 Router&lt;/b&gt;&lt;/font&gt;&lt;font style=&quot;font-size: 7.06px; font-family: Calibri; color: rgb(0, 0, 0); direction: ltr; letter-spacing: 0px; line-height: 100%; opacity: 1;&quot;&gt;&lt;br&gt;&lt;/font&gt;&lt;/p&gt;&lt;/div&gt;" style="verticalAlign=middle;align=center;vsdxID=12895;fillColor=#ffff00;gradientColor=none;fillOpacity=40;shape=stencil(nZBLDoAgDERP0z3SIyjew0SURgSD+Lu9kMZoXLhwN9O+tukAlrNpJg1SzDH4QW/URgNYgZTkjA4UkwJUgGXng+6DX1zLfmoymdXo17xh5zmRJ6Q42BWCfc2oJfdAr+Yv+AP9Cb7OJ3H/2JG1HNGz/84klThPVCc=);strokeColor=none;spacingTop=-3;spacingBottom=-3;spacingLeft=-3;spacingRight=-3;labelBackgroundColor=none;rounded=0;html=1;whiteSpace=wrap;" vertex="1" parent="flix.wan.office.isp.01_0">
    <mxGeometry x="70" y="45" width="39" height="18" as="geometry" />
</mxCell><mxCell id="flix.wan.office.isp.02_0" value="" style="group;noLabel=1;" parent="INTERNET" vertex="1">
    <mxGeometry x="10" y="185" width="110" height="60" as="geometry" />            
</mxCell><mxCell id="flix.wan.office.isp.02_1" value="&lt;div style=&quot;font-size: 9px;&quot;&gt;&lt;font style=&quot;font-size: 9px; font-family: Calibri; color: rgb(255, 255, 255); direction: ltr; letter-spacing: 0px; line-height: 120%; opacity: 1;&quot;&gt;ISP&lt;br style=&quot;font-size: 9px;&quot;&gt;&lt;/font&gt;&lt;font style=&quot;font-size: 9px; font-family: Calibri; color: rgb(255, 255, 255); direction: ltr; letter-spacing: 0px; line-height: 120%; opacity: 1;&quot;&gt;ISP02&lt;/font&gt;&lt;font style=&quot;font-size: 9px; font-family: Calibri; color: rgb(255, 255, 255); direction: ltr; letter-spacing: 0px; line-height: 120%; opacity: 1;&quot;&gt;&lt;br style=&quot;font-size: 9px;&quot;&gt;&lt;/font&gt;&lt;/div&gt;" style="verticalAlign=middle;align=center;vsdxID=5657;fillColor=#612621;gradientColor=none;shape=stencil(nZBLDsIwEENPM1sUMoILlHIBThCRQEaEpErD9/SkNUhVFyy6G9vPGsnETe9N50irvuR0cQ+xxRPvSGuJ3mUp9SJuiZtTyu6c0y1a6M5UUqvRcRad9UBrZfLxIG8Hb7viDWz0ruk+/HsiVYhe376C3gMNEifoL1wE/0EXgrP39RgXwVYSAgad5vMFq4X1uf0A);strokeColor=#6a5628;spacingTop=-2;spacingBottom=-2;spacingLeft=-2;spacingRight=-2;labelBackgroundColor=none;rounded=1;html=1;whiteSpace=wrap;horizontal=1;fontSize=9;" vertex="1" parent="flix.wan.office.isp.02_0">
    <mxGeometry x="0" y="5" width="66" height="40" as="geometry" />
</mxCell><object label="" id="flix.wan.office.isp.02" title="ISP02" provider="Megafon" bandwidth="1000" wan_ip="10.20.12.0/24" description="Сеть ISP провайдера резервного интернет канала" type="WAN" segment="flix.network_segment.internet" OID="flix.wan.office.isp.02" schema="seaf.ta.services.network">
    <mxCell style="shape=mxgraph.cisco.routers.router;sketch=0;html=1;pointerEvents=1;dashed=0;fillColor=#036897;strokeColor=#ffffff;strokeWidth=2;verticalLabelPosition=bottom;verticalAlign=top;align=center;outlineConnect=0;labelBackgroundColor=default;fontSize=12;fontColor=#FFFFFF;" vertex="1" parent="flix.wan.office.isp.02_0">
      <mxGeometry x="60" y="25" width="28" height="22" as="geometry" />
    </mxCell>
</object><mxCell id="flix.wan.office.isp.02_3" value="&lt;div style=&quot;font-size: 1px&quot;&gt;&lt;p style=&quot;align:center;margin-left:0;margin-right:0;margin-top:0px;margin-bottom:0px;text-indent:0;valign:middle;direction:ltr;&quot;&gt;&lt;font style=&quot;font-size: 7.06px; font-family: Calibri; color: rgb(0, 0, 0); direction: ltr; letter-spacing: 0px; line-height: 100%; opacity: 1;&quot;&gt;&lt;b&gt;ISP02 Router&lt;/b&gt;&lt;/font&gt;&lt;font style=&quot;font-size: 7.06px; font-family: Calibri; color: rgb(0, 0, 0); direction: ltr; letter-spacing: 0px; line-height: 100%; opacity: 1;&quot;&gt;&lt;br&gt;&lt;/font&gt;&lt;/p&gt;&lt;/div&gt;" style="verticalAlign=middle;align=center;vsdxID=12895;fillColor=#ffff00;gradientColor=none;fillOpacity=40;shape=stencil(nZBLDoAgDERP0z3SIyjew0SURgSD+Lu9kMZoXLhwN9O+tukAlrNpJg1SzDH4QW/URgNYgZTkjA4UkwJUgGXng+6DX1zLfmoymdXo17xh5zmRJ6Q42BWCfc2oJfdAr+Yv+AP9Cb7OJ3H/2JG1HNGz/84klThPVCc=);strokeColor=none;spacingTop=-3;spacingBottom=-3;spacingLeft=-3;spacingRight=-3;labelBackgroundColor=none;rounded=0;html=1;whiteSpace=wrap;" vertex="1" parent="flix.wan.office.isp.02_0">
    <mxGeometry x="70" y="45" width="39" height="18" as="geometry" />
</mxCell><mxCell id="flix.wan.office.sp.01_0" value="" style="group;noLabel=1;" parent="TRANSPORT-WAN" vertex="1">
    <mxGeometry x="10" y="5" width="110" height="60" as="geometry" />            
</mxCell><mxCell id="flix.wan.office.sp.01_1" value="&lt;div style=&quot;font-size: 9px;&quot;&gt;&lt;font style=&quot;font-size: 9px; font-family: Calibri; color: rgb(255, 255, 255); direction: ltr; letter-spacing: 0px; line-height: 120%; opacity: 1;&quot;&gt;ISP&lt;br style=&quot;font-size: 9px;&quot;&gt;&lt;/font&gt;&lt;font style=&quot;font-size: 9px; font-family: Calibri; color: rgb(255, 255, 255); direction: ltr; letter-spacing: 0px; line-height: 120%; opacity: 1;&quot;&gt;SP01&lt;/font&gt;&lt;font style=&quot;font-size: 9px; font-family: Calibri; color: rgb(255, 255, 255); direction: ltr; letter-spacing: 0px; line-height: 120%; opacity: 1;&quot;&gt;&lt;br style=&quot;font-size: 9px;&quot;&gt;&lt;/font&gt;&lt;/div&gt;" style="verticalAlign=middle;align=center;vsdxID=5657;fillColor=#612621;gradientColor=none;shape=stencil(nZBLDsIwEENPM1sUMoILlHIBThCRQEaEpErD9/SkNUhVFyy6G9vPGsnETe9N50irvuR0cQ+xxRPvSGuJ3mUp9SJuiZtTyu6c0y1a6M5UUqvRcRad9UBrZfLxIG8Hb7viDWz0ruk+/HsiVYhe376C3gMNEifoL1wE/0EXgrP39RgXwVYSAgad5vMFq4X1uf0A);strokeColor=#6a5628;spacingTop=-2;spacingBottom=-2;spacingLeft=-2;spacingRight=-2;labelBackgroundColor=none;rounded=1;html=1;whiteSpace=wrap;horizontal=1;fontSize=9;" vertex="1" parent="flix.wan.office.sp.01_0">
    <mxGeometry x="0" y="5" width="66" height="40" as="geometry" />
</mxCell><object label="" id="flix.wan.office.sp.01" title="SP01" provider="МТС" bandwidth="10000" wan_ip="10.20.13.0/24" description="Сеть SP провайдера основного транспортного канала" type="WAN" segment="flix.network_segment.transport" OID="flix.wan.office.sp.01" schema="seaf.ta.services.network">
    <mxCell style="shape=mxgraph.cisco.routers.router;sketch=0;html=1;pointerEvents=1;dashed=0;fillColor=#036897;strokeColor=#ffffff;strokeWidth=2;verticalLabelPosition=bottom;verticalAlign=top;align=center;outlineConnect=0;labelBackgroundColor=default;fontSize=12;fontColor=#FFFFFF;" vertex="1" parent="flix.wan.office.sp.01_0">
      <mxGeometry x="60" y="25" width="28" height="22" as="geometry" />
    </mxCell>
</object><mxCell id="flix.wan.office.sp.01_3" value="&lt;div style=&quot;font-size: 1px&quot;&gt;&lt;p style=&quot;align:center;margin-left:0;margin-right:0;margin-top:0px;margin-bottom:0px;text-indent:0;valign:middle;direction:ltr;&quot;&gt;&lt;font style=&quot;font-size: 7.06px; font-family: Calibri; color: rgb(0, 0, 0); direction: ltr; letter-spacing: 0px; line-height: 100%; opacity: 1;&quot;&gt;&lt;b&gt;SP01 Router&lt;/b&gt;&lt;/font&gt;&lt;font style=&quot;font-size: 7.06px; font-family: Calibri; color: rgb(0, 0, 0); direction: ltr; letter-spacing: 0px; line-height: 100%; opacity: 1;&quot;&gt;&lt;br&gt;&lt;/font&gt;&lt;/p&gt;&lt;/div&gt;" style="verticalAlign=middle;align=center;vsdxID=12895;fillColor=#ffff00;gradientColor=none;fillOpacity=40;shape=stencil(nZBLDoAgDERP0z3SIyjew0SURgSD+Lu9kMZoXLhwN9O+tukAlrNpJg1SzDH4QW/URgNYgZTkjA4UkwJUgGXng+6DX1zLfmoymdXo17xh5zmRJ6Q42BWCfc2oJfdAr+Yv+AP9Cb7OJ3H/2JG1HNGz/84klThPVCc=);strokeColor=none;spacingTop=-3;spacingBottom=-3;spacingLeft=-3;spacingRight=-3;labelBackgroundColor=none;rounded=0;html=1;whiteSpace=wrap;" vertex="1" parent="flix.wan.office.sp.01_0">
    <mxGeometry x="70" y="45" width="39" height="18" as="geometry" />
</mxCell><mxCell id="flix.wan.office.sp.02_0" value="" style="group;noLabel=1;" parent="TRANSPORT-WAN" vertex="1">
    <mxGeometry x="10" y="95" width="110" height="60" as="geometry" />            
</mxCell><mxCell id="flix.wan.office.sp.02_1" value="&lt;div style=&quot;font-size: 9px;&quot;&gt;&lt;font style=&quot;font-size: 9px; font-family: Calibri; color: rgb(255, 255, 255); direction: ltr; letter-spacing: 0px; line-height: 120%; opacity: 1;&quot;&gt;ISP&lt;br style=&quot;font-size: 9px;&quot;&gt;&lt;/font&gt;&lt;font style=&quot;font-size: 9px; font-family: Calibri; color: rgb(255, 255, 255); direction: ltr; letter-spacing: 0px; line-height: 120%; opacity: 1;&quot;&gt;SP02&lt;/font&gt;&lt;font style=&quot;font-size: 9px; font-family: Calibri; color: rgb(255, 255, 255); direction: ltr; letter-spacing: 0px; line-height: 120%; opacity: 1;&quot;&gt;&lt;br style=&quot;font-size: 9px;&quot;&gt;&lt;/font&gt;&lt;/div&gt;" style="verticalAlign=middle;align=center;vsdxID=5657;fillColor=#612621;gradientColor=none;shape=stencil(nZBLDsIwEENPM1sUMoILlHIBThCRQEaEpErD9/SkNUhVFyy6G9vPGsnETe9N50irvuR0cQ+xxRPvSGuJ3mUp9SJuiZtTyu6c0y1a6M5UUqvRcRad9UBrZfLxIG8Hb7viDWz0ruk+/HsiVYhe376C3gMNEifoL1wE/0EXgrP39RgXwVYSAgad5vMFq4X1uf0A);strokeColor=#6a5628;spacingTop=-2;spacingBottom=-2;spacingLeft=-2;spacingRight=-2;labelBackgroundColor=none;rounded=1;html=1;whiteSpace=wrap;horizontal=1;fontSize=9;" vertex="1" parent="flix.wan.office.sp.02_0">
    <mxGeometry x="0" y="5" width="66" height="40" as="geometry" />
</mxCell><object label="" id="flix.wan.office.sp.02" title="SP02" provider="Ростелеком" bandwidth="10000" wan_ip="10.20.14.0/24" description="Сеть SP провайдера резервного транспортного канала" type="WAN" segment="flix.network_segment.transport" OID="flix.wan.office.sp.02" schema="seaf.ta.services.network">
    <mxCell style="shape=mxgraph.cisco.routers.router;sketch=0;html=1;pointerEvents=1;dashed=0;fillColor=#036897;strokeColor=#ffffff;strokeWidth=2;verticalLabelPosition=bottom;verticalAlign=top;align=center;outlineConnect=0;labelBackgroundColor=default;fontSize=12;fontColor=#FFFFFF;" vertex="1" parent="flix.wan.office.sp.02_0">
      <mxGeometry x="60" y="25" width="28" height="22" as="geometry" />
    </mxCell>
</object><mxCell id="flix.wan.office.sp.02_3" value="&lt;div style=&quot;font-size: 1px&quot;&gt;&lt;p style=&quot;align:center;margin-left:0;margin-right:0;margin-top:0px;margin-bottom:0px;text-indent:0;valign:middle;direction:ltr;&quot;&gt;&lt;font style=&quot;font-size: 7.06px; font-family: Calibri; color: rgb(0, 0, 0); direction: ltr; letter-spacing: 0px; line-height: 100%; opacity: 1;&quot;&gt;&lt;b&gt;SP02 Router&lt;/b&gt;&lt;/font&gt;&lt;font style=&quot;font-size: 7.06px; font-family: Calibri; color: rgb(0, 0, 0); direction: ltr; letter-spacing: 0px; line-height: 100%; opacity: 1;&quot;&gt;&lt;br&gt;&lt;/font&gt;&lt;/p&gt;&lt;/div&gt;" style="verticalAlign=middle;align=center;vsdxID=12895;fillColor=#ffff00;gradientColor=none;fillOpacity=40;shape=stencil(nZBLDoAgDERP0z3SIyjew0SURgSD+Lu9kMZoXLhwN9O+tukAlrNpJg1SzDH4QW/URgNYgZTkjA4UkwJUgGXng+6DX1zLfmoymdXo17xh5zmRJ6Q42BWCfc2oJfdAr+Yv+AP9Cb7OJ3H/2JG1HNGz/84klThPVCc=);strokeColor=none;spacingTop=-3;spacingBottom=-3;spacingLeft=-3;spacingRight=-3;labelBackgroundColor=none;rounded=0;html=1;whiteSpace=wrap;" vertex="1" parent="flix.wan.office.sp.02_0">
    <mxGeometry x="70" y="45" width="39" height="18" as="geometry" />
</mxCell><mxCell id="flix.wan.dc.isp.02_0" value="" style="group;noLabel=1;" parent="TRANSPORT-WAN" vertex="1">
    <mxGeometry x="10" y="5" width="110" height="60" as="geometry" />            
</mxCell><mxCell id="flix.wan.dc.isp.02_1" value="&lt;div style=&quot;font-size: 9px;&quot;&gt;&lt;font style=&quot;font-size: 9px; font-family: Calibri; color: rgb(255, 255, 255); direction: ltr; letter-spacing: 0px; line-height: 120%; opacity: 1;&quot;&gt;ISP&lt;br style=&quot;font-size: 9px;&quot;&gt;&lt;/font&gt;&lt;font style=&quot;font-size: 9px; font-family: Calibri; color: rgb(255, 255, 255); direction: ltr; letter-spacing: 0px; line-height: 120%; opacity: 1;&quot;&gt;SP02&lt;/font&gt;&lt;font style=&quot;font-size: 9px; font-family: Calibri; color: rgb(255, 255, 255); direction: ltr; letter-spacing: 0px; line-height: 120%; opacity: 1;&quot;&gt;&lt;br style=&quot;font-size: 9px;&quot;&gt;&lt;/font&gt;&lt;/div&gt;" style="verticalAlign=middle;align=center;vsdxID=5657;fillColor=#612621;gradientColor=none;shape=stencil(nZBLDsIwEENPM1sUMoILlHIBThCRQEaEpErD9/SkNUhVFyy6G9vPGsnETe9N50irvuR0cQ+xxRPvSGuJ3mUp9SJuiZtTyu6c0y1a6M5UUqvRcRad9UBrZfLxIG8Hb7viDWz0ruk+/HsiVYhe376C3gMNEifoL1wE/0EXgrP39RgXwVYSAgad5vMFq4X1uf0A);strokeColor=#6a5628;spacingTop=-2;spacingBottom=-2;spacingLeft=-2;spacingRight=-2;labelBackgroundColor=none;rounded=1;html=1;whiteSpace=wrap;horizontal=1;fontSize=9;" vertex="1" parent="flix.wan.dc.isp.02_0">
    <mxGeometry x="0" y="5" width="66" height="40" as="geometry" />
</mxCell><object label="" id="flix.wan.dc.isp.02" title="SP02" provider="Ростелеком" bandwidth="10000" wan_ip="10.20.14.0/24" description="Сеть SP провайдера резервного транспортного канала" type="WAN" segment="flix.network_segment_dc.transport" OID="flix.wan.dc.isp.02" schema="seaf.ta.services.network">
    <mxCell style="shape=mxgraph.cisco.routers.router;sketch=0;html=1;pointerEvents=1;dashed=0;fillColor=#036897;strokeColor=#ffffff;strokeWidth=2;verticalLabelPosition=bottom;verticalAlign=top;align=center;outlineConnect=0;labelBackgroundColor=default;fontSize=12;fontColor=#FFFFFF;" vertex="1" parent="flix.wan.dc.isp.02_0">
      <mxGeometry x="60" y="25" width="28" height="22" as="geometry" />
    </mxCell>
</object><mxCell id="flix.wan.dc.isp.02_3" value="&lt;div style=&quot;font-size: 1px&quot;&gt;&lt;p style=&quot;align:center;margin-left:0;margin-right:0;margin-top:0px;margin-bottom:0px;text-indent:0;valign:middle;direction:ltr;&quot;&gt;&lt;font style=&quot;font-size: 7.06px; font-family: Calibri; color: rgb(0, 0, 0); direction: ltr; letter-spacing: 0px; line-height: 100%; opacity: 1;&quot;&gt;&lt;b&gt;SP02 Router&lt;/b&gt;&lt;/font&gt;&lt;font style=&quot;font-size: 7.06px; font-family: Calibri; color: rgb(0, 0, 0); direction: ltr; letter-spacing: 0px; line-height: 100%; opacity: 1;&quot;&gt;&lt;br&gt;&lt;/font&gt;&lt;/p&gt;&lt;/div&gt;" style="verticalAlign=middle;align=center;vsdxID=12895;fillColor=#ffff00;gradientColor=none;fillOpacity=40;shape=stencil(nZBLDoAgDERP0z3SIyjew0SURgSD+Lu9kMZoXLhwN9O+tukAlrNpJg1SzDH4QW/URgNYgZTkjA4UkwJUgGXng+6DX1zLfmoymdXo17xh5zmRJ6Q42BWCfc2oJfdAr+Yv+AP9Cb7OJ3H/2JG1HNGz/84klThPVCc=);strokeColor=none;spacingTop=-3;spacingBottom=-3;spacingLeft=-3;spacingRight=-3;labelBackgroundColor=none;rounded=0;html=1;whiteSpace=wrap;" vertex="1" parent="flix.wan.dc.isp.02_0">
    <mxGeometry x="70" y="45" width="39" height="18" as="geometry" />
</mxCell><object id="d64fa49e3def924d6ae2ac439b15b2ff" label="" source="flix.wan.office.isp.guest" target="flix.office.hq">
    <mxCell style="endArrow=none;edgeStyle=orthogonalEdgeStyle;rounded=0;curved=0;strokeColor=#FF0000;" edge="1" parent="100" source="flix.wan.office.isp.guest" target="flix.office.hq">
        <mxGeometry relative="1" as="geometry" />
    </mxCell>
</object><object id="446c973309022776cfcf64d44bb2a83e" label="" source="flix.wan.office.isp.01" target="flix.office.hq">
    <mxCell style="endArrow=none;edgeStyle=orthogonalEdgeStyle;rounded=0;curved=0;strokeColor=#FF0000;" edge="1" parent="100" source="flix.wan.office.isp.01" target="flix.office.hq">
        <mxGeometry relative="1" as="geometry" />
    </mxCell>
</object><object id="7f4ec0033c675232529727ea3ca40bc1" label="" source="flix.wan.office.isp.02" target="flix.office.hq">
    <mxCell style="endArrow=none;edgeStyle=orthogonalEdgeStyle;rounded=0;curved=0;strokeColor=#FF0000;" edge="1" parent="100" source="flix.wan.office.isp.02" target="flix.office.hq">
        <mxGeometry relative="1" as="geometry" />
    </mxCell>
</object><object id="752ad2cec7759b21b6b7902a9811ac81" label="" source="flix.wan.office.sp.01" target="flix.office.hq">
    <mxCell style="endArrow=none;edgeStyle=orthogonalEdgeStyle;rounded=0;curved=0;strokeColor=#FF0000;" edge="1" parent="100" source="flix.wan.office.sp.01" target="flix.office.hq">
        <mxGeometry relative="1" as="geometry" />
    </mxCell>
</object><object id="c123dde088d05df3d84bf2cacdce2ac2" label="" source="flix.wan.office.sp.02" target="flix.office.hq">
    <mxCell style="endArrow=none;edgeStyle=orthogonalEdgeStyle;rounded=0;curved=0;strokeColor=#FF0000;" edge="1" parent="100" source="flix.wan.office.sp.02" target="flix.office.hq">
        <mxGeometry relative="1" as="geometry" />
    </mxCell>
</object><object id="e3b778081d45a1a615aa2a8fb91596b5" label="" source="flix.wan.dc.isp.01" target="flix.dc.01">
    <mxCell style="endArrow=none;edgeStyle=orthogonalEdgeStyle;rounded=0;curved=0;strokeColor=#FF0000;" edge="1" parent="100" source="flix.wan.dc.isp.01" target="flix.dc.01">
        <mxGeometry relative="1" as="geometry" />
    </mxCell>
</object><object id="721c24e6a69e0a32b461bebfc5c567d5" label="" source="flix.wan.dc.isp.02" target="flix.dc.01">
    <mxCell style="endArrow=none;edgeStyle=orthogonalEdgeStyle;rounded=0;curved=0;strokeColor=#FF0000;" edge="1" parent="100" source="flix.wan.dc.isp.02" target="flix.dc.01">
        <mxGeometry relative="1" as="geometry" />
    </mxCell>
</object></root>
    </mxGraphModel>
  </diagram>
<diagram id="flix.office.hq_page" name="Головной офис">
  <mxGraphModel dx="1360" dy="864" grid="1" gridSize="10" guides="1" tooltips="1" connect="1" arrows="1" fold="1" page="1" pageScale="1" pageWidth="827" pageHeight="1169" math="0" shadow="1">
    <root>
      <mxCell id="0" />   
      <mxCell id="1" parent="0" />
      <mxCell value="Office" id="001" style="group;strokeColor=default;rounded=0;strokeWidth=1;perimeterSpacing=1;fontColor=none;noLabel=1;" parent="0" vertex="1">
        <mxGeometry x="615" y="60" width="1385" height="1060" as="geometry" />
      </mxCell>
      <mxCell value="External Net" id="002" style="group;fontColor=none;noLabel=1;" parent="0" vertex="1">
        <mxGeometry x="20" y="60" width="200" height="1060" as="geometry" />
      </mxCell>
      <mxCell id="003" value="INTERNET" style="group;fontColor=none;noLabel=1;" parent="0" vertex="1">
        <mxGeometry x="240" y="60" width="160" height="1060" as="geometry" />
      </mxCell>
      <mxCell id="004" value="WAN" style="group;fontColor=none;noLabel=1;" parent="0" vertex="1">
        <mxGeometry x="420" y="60" width="160" height="1060" as="geometry" />
      </mxCell>
      <mxCell id="100" value="Links" style="group;fontColor=none;noLabel=1;" parent="0" />
    <object label="&lt;div style=&quot;font-size: 1px&quot;&gt;&lt;font style=&quot;font-size:16.93px;font-family:Calibri;color:#000000;direction:ltr;letter-spacing:0px;line-height:120%;opacity:1&quot;&gt;&lt;b&gt;Головной офис&lt;br/&gt;&lt;/b&gt;&lt;/font&gt;&lt;font style=&quot;font-size:11.29px;font-family:Calibri;color:#000000;direction:ltr;letter-spacing:0px;line-height:120%;opacity:1&quot;&gt;Берёзовый бульвар, д.14&lt;br/&gt;&lt;/font&gt;&lt;font style=&quot;font-size:8.47px;font-family:Calibri;color:#000000;direction:ltr;letter-spacing:0px;line-height:120%;opacity:1&quot;&gt;&lt;b&gt; &lt;/b&gt;&lt;/font&gt;&lt;font style=&quot;font-size:16.93px;font-family:Calibri;color:#000000;direction:ltr;letter-spacing:0px;line-height:120%;opacity:1&quot;&gt;&lt;b&gt;&lt;br/&gt;&lt;/b&gt;&lt;/font&gt;&lt;/div&gt;" id="flix.office.hq" title="Головной офис" description="Головной офис компании" address="Берёзовый бульвар, д.14" region="flix.dc_region.russia" OID="flix.office.hq" schema="seaf.ta.services.office">
  <mxCell style="verticalAlign=middle;align=center;vsdxID=13090;fillColor=#ffffff;gradientColor=none;shape=stencil(vZTbDsIgDIafhssRBObh2sN7EGUbEcfSoc63l6VbdLiZmJjd9fBB+ZtSIrZ1oSpNOKs9uLO+m5MviNgRzk1ZaDA+WETsidhmDnQO7lqe0K9US7bWxd3aGxo8t2DtEc4evYv+AVlryjd28zdWwTHkoGfpZok0dLiUlEsMNcML+gvTlKarjkhUY+oEnFfeuBLzHW0V5DoJ5ZLMqnyQqu9aVx/hUTFx8fA8Kb7pWctIj6ArPtAT9YfNJWW07oTof5C/d2aq1TM0Z2rERrUsGGXpx9gu47Ed/QazzOy3DxiM10bIjLW4UN7z8QYJIdw+Yv8E);strokeColor=#000000;strokeWidth=0;labelBackgroundColor=none;rounded=0;html=1;whiteSpace=wrap;" vertex="1" parent="001">
    <mxGeometry x="-130" y="-20" width="265" height="59" as="geometry" />
  </mxCell>
</object><object label="УС уровня доступа" id="flix.network_segment.office.access" title="УС уровня доступа" sber="{'zone': 'DMZ', 'location': 'flix.office.hq'}" OID="flix.network_segment.office.access" schema="seaf.ta.services.network_segment">
    <mxCell style="rounded=0;whiteSpace=wrap;html=1;fontFamily=Helvetica;fontSize=12;fontColor=#000000;fillColor=#DDD7E6;verticalAlign=top;fontStyle=1;strokeColor=none;" parent="001" vertex="1">
      <mxGeometry x="195" y="0" width="440" height="899" as="geometry" />
    </mxCell>
</object><object label="INET-EDGE" id="flix.network_segment.office.inet_edge" title="INET-EDGE" sber="{'zone': 'INET-EDGE', 'location': 'flix.office.hq'}" OID="flix.network_segment.office.inet_edge" schema="seaf.ta.services.network_segment">
    <mxCell style="rounded=0;whiteSpace=wrap;html=1;fontFamily=Helvetica;fontSize=12;fillColor=#BFBFBF;horizontal=1;labelPosition=center;verticalLabelPosition=middle;align=center;verticalAlign=top;fontColor=#FFFFFF;fontStyle=1;strokeColor=none;" vertex="1" parent="001">
        <mxGeometry x="0" y="210" width="195" height="600" as="geometry" />
    </mxCell>
</object><object label="WAN-EDGE" id="flix.network_segment.office.wan_edge" title="WAN-EDGE" sber="{'zone': 'INT-WAN-EDGE', 'location': 'flix.office.hq'}" OID="flix.network_segment.office.wan_edge" schema="seaf.ta.services.network_segment">
    <mxCell style="rounded=0;whiteSpace=wrap;html=1;fontFamily=Helvetica;fontSize=12;fontColor=#FFFFFF;fillColor=#BFBFBF;verticalAlign=top;strokeColor=none;" vertex="1" parent="001">
      <mxGeometry x="195" y="899" width="440" height="161" as="geometry" />
    </mxCell>
</object><object label="Внутренняя сеть офиса (ЛВС)" id="flix.network_segment.office.int" title="Внутренняя сеть офиса (ЛВС)" sber="{'zone': 'INT-NET', 'location': 'flix.office.hq'}" OID="flix.network_segment.office.int" schema="seaf.ta.services.network_segment">
  <mxCell style="rounded=0;whiteSpace=wrap;html=1;fontFamily=Helvetica;fontSize=12;fontColor=#000000;fillColor=#FFCE9F;fontStyle=1;verticalAlign=top;strokeColor=none;" vertex="1" parent="001">
      <mxGeometry x="635" y="0" width="750" height="1060" as="geometry" />
  </mxCell>
</object><object label="Internet" id="flix.network_segment.internet" title="Internet" sber="{'zone': 'INTERNET', 'location': 'flix.office.hq'}" OID="flix.network_segment.internet" schema="seaf.ta.services.network_segment">
  <mxCell style="verticalAlign=middle;align=center;vsdxID=5629;rotation=270;fillColor=#FDEBDD;gradientColor=none;shape=stencil(nZBLDsIwEENPM1sUMoILlHIBThCRQEaEpErD9/SkNUhVFyy6G9vPGsnETe9N50irvuR0cQ+xxRPvSGuJ3mUp9SJuiZtTyu6c0y1a6M5UUqvRcRad9UBrZfLxIG8Hb7viDWz0ruk+/HsiVYhe376C3gMNEifoL1wE/0EXgrP39RgXwVYSAgad5vMFq4X1uf0A);strokeColor=#9c4a09;spacingTop=-2;spacingBottom=-2;spacingLeft=-2;spacingRight=-2;labelBackgroundColor=none;rounded=1;html=1;whiteSpace=wrap;" parent="003" vertex="1">
    <mxGeometry x="-480" y="525" width="1015" height="27" as="geometry" />
  </mxCell>
</object><object label="Транспортная сеть" id="flix.network_segment.transport" title="Транспортная сеть" sber="{'zone': 'TRANSPORT-WAN', 'location': 'flix.office.hq'}" OID="flix.network_segment.transport" schema="seaf.ta.services.network_segment">
  <mxCell style="verticalAlign=middle;align=center;vsdxID=5629;rotation=270;fillColor=#ffcc66;gradientColor=none;shape=stencil(nZBLDsIwEENPM1sUMoILlHIBThCRQEaEpErD9/SkNUhVFyy6G9vPGsnETe9N50irvuR0cQ+xxRPvSGuJ3mUp9SJuiZtTyu6c0y1a6M5UUqvRcRad9UBrZfLxIG8Hb7viDWz0ruk+/HsiVYhe376C3gMNEifoL1wE/0EXgrP39RgXwVYSAgad5vMFq4X1uf0A);strokeColor=#6a5628;spacingTop=-2;spacingBottom=-2;spacingLeft=-2;spacingRight=-2;labelBackgroundColor=none;rounded=1;html=1;whiteSpace=wrap;" parent="004" vertex="1">
    <mxGeometry x="-480" y="525" width="1015" height="27" as="geometry" />
  </mxCell>
</object><mxCell id="flix.wan.office.isp.guest_0" value="" style="group;noLabel=1;" parent="flix.network_segment.internet" vertex="1">
    <mxGeometry x="510" y="-450" width="110" height="60" as="geometry" />            
</mxCell><mxCell id="flix.wan.office.isp.guest_1" value="&lt;div style=&quot;font-size: 9px;&quot;&gt;&lt;font style=&quot;font-size: 9px; font-family: Calibri; color: rgb(255, 255, 255); direction: ltr; letter-spacing: 0px; line-height: 120%; opacity: 1;&quot;&gt;ISP&lt;br style=&quot;font-size: 9px;&quot;&gt;&lt;/font&gt;&lt;font style=&quot;font-size: 9px; font-family: Calibri; color: rgb(255, 255, 255); direction: ltr; letter-spacing: 0px; line-height: 120%; opacity: 1;&quot;&gt;ISP Guest&lt;/font&gt;&lt;font style=&quot;font-size: 9px; font-family: Calibri; color: rgb(255, 255, 255); direction: ltr; letter-spacing: 0px; line-height: 120%; opacity: 1;&quot;&gt;&lt;br style=&quot;font-size: 9px;&quot;&gt;&lt;/font&gt;&lt;/div&gt;" style="verticalAlign=middle;align=center;vsdxID=5657;fillColor=#612621;gradientColor=none;shape=stencil(nZBLDsIwEENPM1sUMoILlHIBThCRQEaEpErD9/SkNUhVFyy6G9vPGsnETe9N50irvuR0cQ+xxRPvSGuJ3mUp9SJuiZtTyu6c0y1a6M5UUqvRcRad9UBrZfLxIG8Hb7viDWz0ruk+/HsiVYhe376C3gMNEifoL1wE/0EXgrP39RgXwVYSAgad5vMFq4X1uf0A);strokeColor=#6a5628;spacingTop=-2;spacingBottom=-2;spacingLeft=-2;spacingRight=-2;labelBackgroundColor=none;rounded=1;html=1;whiteSpace=wrap;horizontal=1;fontSize=9;" vertex="1" parent="flix.wan.office.isp.guest_0">
    <mxGeometry x="0" y="5" width="66" height="40" as="geometry" />
</mxCell><object label="" id="flix.wan.office.isp.guest" title="ISP Guest" provider="МТС" bandwidth="1000" wan_ip="10.20.10.0/24" description="Сеть ISP провайдера гостевой сети" type="WAN" segment="flix.network_segment.internet" OID="flix.wan.office.isp.guest" schema="seaf.ta.services.network">
    <mxCell style="shape=mxgraph.cisco.routers.router;sketch=0;html=1;pointerEvents=1;dashed=0;fillColor=#036897;strokeColor=#ffffff;strokeWidth=2;verticalLabelPosition=bottom;verticalAlign=top;align=center;outlineConnect=0;labelBackgroundColor=default;fontSize=12;fontColor=#FFFFFF;" vertex="1" parent="flix.wan.office.isp.guest_0">
      <mxGeometry x="60" y="25" width="28" height="22" as="geometry" />
    </mxCell>
</object><mxCell id="flix.wan.office.isp.guest_3" value="&lt;div style=&quot;font-size: 1px&quot;&gt;&lt;p style=&quot;align:center;margin-left:0;margin-right:0;margin-top:0px;margin-bottom:0px;text-indent:0;valign:middle;direction:ltr;&quot;&gt;&lt;font style=&quot;font-size: 7.06px; font-family: Calibri; color: rgb(0, 0, 0); direction: ltr; letter-spacing: 0px; line-height: 100%; opacity: 1;&quot;&gt;&lt;b&gt;ISP Guest Router&lt;/b&gt;&lt;/font&gt;&lt;font style=&quot;font-size: 7.06px; font-family: Calibri; color: rgb(0, 0, 0); direction: ltr; letter-spacing: 0px; line-height: 100%; opacity: 1;&quot;&gt;&lt;br&gt;&lt;/font&gt;&lt;/p&gt;&lt;/div&gt;" style="verticalAlign=middle;align=center;vsdxID=12895;fillColor=#ffff00;gradientColor=none;fillOpacity=40;shape=stencil(nZBLDoAgDERP0z3SIyjew0SURgSD+Lu9kMZoXLhwN9O+tukAlrNpJg1SzDH4QW/URgNYgZTkjA4UkwJUgGXng+6DX1zLfmoymdXo17xh5zmRJ6Q42BWCfc2oJfdAr+Yv+AP9Cb7OJ3H/2JG1HNGz/84klThPVCc=);strokeColor=none;spacingTop=-3;spacingBottom=-3;spacingLeft=-3;spacingRight=-3;labelBackgroundColor=none;rounded=0;html=1;whiteSpace=wrap;" vertex="1" parent="flix.wan.office.isp.guest_0">
    <mxGeometry x="70" y="45" width="39" height="18" as="geometry" />
</mxCell><mxCell id="flix.wan.office.isp.01_0" value="" style="group;noLabel=1;" parent="flix.network_segment.internet" vertex="1">
    <mxGeometry x="510" y="-360" width="110" height="60" as="geometry" />            
</mxCell><mxCell id="flix.wan.office.isp.01_1" value="&lt;div style=&quot;font-size: 9px;&quot;&gt;&lt;font style=&quot;font-size: 9px; font-family: Calibri; color: rgb(255, 255, 255); direction: ltr; letter-spacing: 0px; line-height: 120%; opacity: 1;&quot;&gt;ISP&lt;br style=&quot;font-size: 9px;&quot;&gt;&lt;/font&gt;&lt;font style=&quot;font-size: 9px; font-family: Calibri; color: rgb(255, 255, 255); direction: ltr; letter-spacing: 0px; line-height: 120%; opacity: 1;&quot;&gt;ISP01&lt;/font&gt;&lt;font style=&quot;font-size: 9px; font-family: Calibri; color: rgb(255, 255, 255); direction: ltr; letter-spacing: 0px; line-height: 120%; opacity: 1;&quot;&gt;&lt;br style=&quot;font-size: 9px;&quot;&gt;&lt;/font&gt;&lt;/div&gt;" style="verticalAlign=middle;align=center;vsdxID=5657;fillColor=#612621;gradientColor=none;shape=stencil(nZBLDsIwEENPM1sUMoILlHIBThCRQEaEpErD9/SkNUhVFyy6G9vPGsnETe9N50irvuR0cQ+xxRPvSGuJ3mUp9SJuiZtTyu6c0y1a6M5UUqvRcRad9UBrZfLxIG8Hb7viDWz0ruk+/HsiVYhe376C3gMNEifoL1wE/0EXgrP39RgXwVYSAgad5vMFq4X1uf0A);strokeColor=#6a5628;spacingTop=-2;spacingBottom=-2;spacingLeft=-2;spacingRight=-2;labelBackgroundColor=none;rounded=1;html=1;whiteSpace=wrap;horizontal=1;fontSize=9;" vertex="1" parent="flix.wan.office.isp.01_0">
    <mxGeometry x="0" y="5" width="66" height="40" as="geometry" />
</mxCell><object label="" id="flix.wan.office.isp.01" title="ISP01" provider="МТС" bandwidth="1000" wan_ip="10.20.11.0/24" description="Сеть ISP провайдера основного интернет канала" type="WAN" segment="flix.network_segment.internet" OID="flix.wan.office.isp.01" schema="seaf.ta.services.network">
    <mxCell style="shape=mxgraph.cisco.routers.router;sketch=0;html=1;pointerEvents=1;dashed=0;fillColor=#036897;strokeColor=#ffffff;strokeWidth=2;verticalLabelPosition=bottom;verticalAlign=top;align=center;outlineConnect=0;labelBackgroundColor=default;fontSize=12;fontColor=#FFFFFF;" vertex="1" parent="flix.wan.office.isp.01_0">
      <mxGeometry x="60" y="25" width="28" height="22" as="geometry" />
    </mxCell>
</object><mxCell id="flix.wan.office.isp.01_3" value="&lt;div style=&quot;font-size: 1px&quot;&gt;&lt;p style=&quot;align:center;margin-left:0;margin-right:0;margin-top:0px;margin-bottom:0px;text-indent:0;valign:middle;direction:ltr;&quot;&gt;&lt;font style=&quot;font-size: 7.06px; font-family: Calibri; color: rgb(0, 0, 0); direction: ltr; letter-spacing: 0px; line-height: 100%; opacity: 1;&quot;&gt;&lt;b&gt;ISP01 Router&lt;/b&gt;&lt;/font&gt;&lt;font style=&quot;font-size: 7.06px; font-family: Calibri; color: rgb(0, 0, 0); direction: ltr; letter-spacing: 0px; line-height: 100%; opacity: 1;&quot;&gt;&lt;br&gt;&lt;/font&gt;&lt;/p&gt;&lt;/div&gt;" style="verticalAlign=middle;align=center;vsdxID=12895;fillColor=#ffff00;gradientColor=none;fillOpacity=40;shape=stencil(nZBLDoAgDERP0z3SIyjew0SURgSD+Lu9kMZoXLhwN9O+tukAlrNpJg1SzDH4QW/URgNYgZTkjA4UkwJUgGXng+6DX1zLfmoymdXo17xh5zmRJ6Q42BWCfc2oJfdAr+Yv+AP9Cb7OJ3H/2JG1HNGz/84klThPVCc=);strokeColor=none;spacingTop=-3;spacingBottom=-3;spacingLeft=-3;spacingRight=-3;labelBackgroundColor=none;rounded=0;html=1;whiteSpace=wrap;" vertex="1" parent="flix.wan.office.isp.01_0">
    <mxGeometry x="70" y="45" width="39" height="18" as="geometry" />
</mxCell><mxCell id="flix.wan.office.isp.02_0" value="" style="group;noLabel=1;" parent="flix.network_segment.internet" vertex="1">
    <mxGeometry x="510" y="-270" width="110" height="60" as="geometry" />            
</mxCell><mxCell id="flix.wan.office.isp.02_1" value="&lt;div style=&quot;font-size: 9px;&quot;&gt;&lt;font style=&quot;font-size: 9px; font-family: Calibri; color: rgb(255, 255, 255); direction: ltr; letter-spacing: 0px; line-height: 120%; opacity: 1;&quot;&gt;ISP&lt;br style=&quot;font-size: 9px;&quot;&gt;&lt;/font&gt;&lt;font style=&quot;font-size: 9px; font-family: Calibri; color: rgb(255, 255, 255); direction: ltr; letter-spacing: 0px; line-height: 120%; opacity: 1;&quot;&gt;ISP02&lt;/font&gt;&lt;font style=&quot;font-size: 9px; font-family: Calibri; color: rgb(255, 255, 255); direction: ltr; letter-spacing: 0px; line-height: 120%; opacity: 1;&quot;&gt;&lt;br style=&quot;font-size: 9px;&quot;&gt;&lt;/font&gt;&lt;/div&gt;" style="verticalAlign=middle;align=center;vsdxID=5657;fillColor=#612621;gradientColor=none;shape=stencil(nZBLDsIwEENPM1sUMoILlHIBThCRQEaEpErD9/SkNUhVFyy6G9vPGsnETe9N50irvuR0cQ+xxRPvSGuJ3mUp9SJuiZtTyu6c0y1a6M5UUqvRcRad9UBrZfLxIG8Hb7viDWz0ruk+/HsiVYhe376C3gMNEifoL1wE/0EXgrP39RgXwVYSAgad5vMFq4X1uf0A);strokeColor=#6a5628;spacingTop=-2;spacingBottom=-2;spacingLeft=-2;spacingRight=-2;labelBackgroundColor=none;rounded=1;html=1;whiteSpace=wrap;horizontal=1;fontSize=9;" vertex="1" parent="flix.wan.office.isp.02_0">
    <mxGeometry x="0" y="5" width="66" height="40" as="geometry" />
</mxCell><object label="" id="flix.wan.office.isp.02" title="ISP02" provider="Megafon" bandwidth="1000" wan_ip="10.20.12.0/24" description="Сеть ISP провайдера резервного интернет канала" type="WAN" segment="flix.network_segment.internet" OID="flix.wan.office.isp.02" schema="seaf.ta.services.network">
    <mxCell style="shape=mxgraph.cisco.routers.router;sketch=0;html=1;pointerEvents=1;dashed=0;fillColor=#036897;strokeColor=#ffffff;strokeWidth=2;verticalLabelPosition=bottom;verticalAlign=top;align=center;outlineConnect=0;labelBackgroundColor=default;fontSize=12;fontColor=#FFFFFF;" vertex="1" parent="flix.wan.office.isp.02_0">
      <mxGeometry x="60" y="25" width="28" height="22" as="geometry" />
    </mxCell>
</object><mxCell id="flix.wan.office.isp.02_3" value="&lt;div style=&quot;font-size: 1px&quot;&gt;&lt;p style=&quot;align:center;margin-left:0;margin-right:0;margin-top:0px;margin-bottom:0px;text-indent:0;valign:middle;direction:ltr;&quot;&gt;&lt;font style=&quot;font-size: 7.06px; font-family: Calibri; color: rgb(0, 0, 0); direction: ltr; letter-spacing: 0px; line-height: 100%; opacity: 1;&quot;&gt;&lt;b&gt;ISP02 Router&lt;/b&gt;&lt;/font&gt;&lt;font style=&quot;font-size: 7.06px; font-family: Calibri; color: rgb(0, 0, 0); direction: ltr; letter-spacing: 0px; line-height: 100%; opacity: 1;&quot;&gt;&lt;br&gt;&lt;/font&gt;&lt;/p&gt;&lt;/div&gt;" style="verticalAlign=middle;align=center;vsdxID=12895;fillColor=#ffff00;gradientColor=none;fillOpacity=40;shape=stencil(nZBLDoAgDERP0z3SIyjew0SURgSD+Lu9kMZoXLhwN9O+tukAlrNpJg1SzDH4QW/URgNYgZTkjA4UkwJUgGXng+6DX1zLfmoymdXo17xh5zmRJ6Q42BWCfc2oJfdAr+Yv+AP9Cb7OJ3H/2JG1HNGz/84klThPVCc=);strokeColor=none;spacingTop=-3;spacingBottom=-3;spacingLeft=-3;spacingRight=-3;labelBackgroundColor=none;rounded=0;html=1;whiteSpace=wrap;" vertex="1" parent="flix.wan.office.isp.02_0">
    <mxGeometry x="70" y="45" width="39" height="18" as="geometry" />
</mxCell><mxCell id="flix.wan.office.sp.01_0" value="" style="group;noLabel=1;" parent="flix.network_segment.transport" vertex="1">
    <mxGeometry x="510" y="-450" width="110" height="60" as="geometry" />            
</mxCell><mxCell id="flix.wan.office.sp.01_1" value="&lt;div style=&quot;font-size: 9px;&quot;&gt;&lt;font style=&quot;font-size: 9px; font-family: Calibri; color: rgb(255, 255, 255); direction: ltr; letter-spacing: 0px; line-height: 120%; opacity: 1;&quot;&gt;ISP&lt;br style=&quot;font-size: 9px;&quot;&gt;&lt;/font&gt;&lt;font style=&quot;font-size: 9px; font-family: Calibri; color: rgb(255, 255, 255); direction: ltr; letter-spacing: 0px; line-height: 120%; opacity: 1;&quot;&gt;SP01&lt;/font&gt;&lt;font style=&quot;font-size: 9px; font-family: Calibri; color: rgb(255, 255, 255); direction: ltr; letter-spacing: 0px; line-height: 120%; opacity: 1;&quot;&gt;&lt;br style=&quot;font-size: 9px;&quot;&gt;&lt;/font&gt;&lt;/div&gt;" style="verticalAlign=middle;align=center;vsdxID=5657;fillColor=#612621;gradientColor=none;shape=stencil(nZBLDsIwEENPM1sUMoILlHIBThCRQEaEpErD9/SkNUhVFyy6G9vPGsnETe9N50irvuR0cQ+xxRPvSGuJ3mUp9SJuiZtTyu6c0y1a6M5UUqvRcRad9UBrZfLxIG8Hb7viDWz0ruk+/HsiVYhe376C3gMNEifoL1wE/0EXgrP39RgXwVYSAgad5vMFq4X1uf0A);strokeColor=#6a5628;spacingTop=-2;spacingBottom=-2;spacingLeft=-2;spacingRight=-2;labelBackgroundColor=none;rounded=1;html=1;whiteSpace=wrap;horizontal=1;fontSize=9;" vertex="1" parent="flix.wan.office.sp.01_0">
    <mxGeometry x="0" y="5" width="66" height="40" as="geometry" />
</mxCell><object label="" id="flix.wan.office.sp.01" title="SP01" provider="МТС" bandwidth="10000" wan_ip="10.20.13.0/24" description="Сеть SP провайдера основного транспортного канала" type="WAN" segment="flix.network_segment.transport" OID="flix.wan.office.sp.01" schema="seaf.ta.services.network">
    <mxCell style="shape=mxgraph.cisco.routers.router;sketch=0;html=1;pointerEvents=1;dashed=0;fillColor=#036897;strokeColor=#ffffff;strokeWidth=2;verticalLabelPosition=bottom;verticalAlign=top;align=center;outlineConnect=0;labelBackgroundColor=default;fontSize=12;fontColor=#FFFFFF;" vertex="1" parent="flix.wan.office.sp.01_0">
      <mxGeometry x="60" y="25" width="28" height="22" as="geometry" />
    </mxCell>
</object><mxCell id="flix.wan.office.sp.01_3" value="&lt;div style=&quot;font-size: 1px&quot;&gt;&lt;p style=&quot;align:center;margin-left:0;margin-right:0;margin-top:0px;margin-bottom:0px;text-indent:0;valign:middle;direction:ltr;&quot;&gt;&lt;font style=&quot;font-size: 7.06px; font-family: Calibri; color: rgb(0, 0, 0); direction: ltr; letter-spacing: 0px; line-height: 100%; opacity: 1;&quot;&gt;&lt;b&gt;SP01 Router&lt;/b&gt;&lt;/font&gt;&lt;font style=&quot;font-size: 7.06px; font-family: Calibri; color: rgb(0, 0, 0); direction: ltr; letter-spacing: 0px; line-height: 100%; opacity: 1;&quot;&gt;&lt;br&gt;&lt;/font&gt;&lt;/p&gt;&lt;/div&gt;" style="verticalAlign=middle;align=center;vsdxID=12895;fillColor=#ffff00;gradientColor=none;fillOpacity=40;shape=stencil(nZBLDoAgDERP0z3SIyjew0SURgSD+Lu9kMZoXLhwN9O+tukAlrNpJg1SzDH4QW/URgNYgZTkjA4UkwJUgGXng+6DX1zLfmoymdXo17xh5zmRJ6Q42BWCfc2oJfdAr+Yv+AP9Cb7OJ3H/2JG1HNGz/84klThPVCc=);strokeColor=none;spacingTop=-3;spacingBottom=-3;spacingLeft=-3;spacingRight=-3;labelBackgroundColor=none;rounded=0;html=1;whiteSpace=wrap;" vertex="1" parent="flix.wan.office.sp.01_0">
    <mxGeometry x="70" y="45" width="39" height="18" as="geometry" />
</mxCell><mxCell id="flix.wan.office.sp.02_0" value="" style="group;noLabel=1;" parent="flix.network_segment.transport" vertex="1">
    <mxGeometry x="510" y="-360" width="110" height="60" as="geometry" />            
</mxCell><mxCell id="flix.wan.office.sp.02_1" value="&lt;div style=&quot;font-size: 9px;&quot;&gt;&lt;font style=&quot;font-size: 9px; font-family: Calibri; color: rgb(255, 255, 255); direction: ltr; letter-spacing: 0px; line-height: 120%; opacity: 1;&quot;&gt;ISP&lt;br style=&quot;font-size: 9px;&quot;&gt;&lt;/font&gt;&lt;font style=&quot;font-size: 9px; font-family: Calibri; color: rgb(255, 255, 255); direction: ltr; letter-spacing: 0px; line-height: 120%; opacity: 1;&quot;&gt;SP02&lt;/font&gt;&lt;font style=&quot;font-size: 9px; font-family: Calibri; color: rgb(255, 255, 255); direction: ltr; letter-spacing: 0px; line-height: 120%; opacity: 1;&quot;&gt;&lt;br style=&quot;font-size: 9px;&quot;&gt;&lt;/font&gt;&lt;/div&gt;" style="verticalAlign=middle;align=center;vsdxID=5657;fillColor=#612621;gradientColor=none;shape=stencil(nZBLDsIwEENPM1sUMoILlHIBThCRQEaEpErD9/SkNUhVFyy6G9vPGsnETe9N50irvuR0cQ+xxRPvSGuJ3mUp9SJuiZtTyu6c0y1a6M5UUqvRcRad9UBrZfLxIG8Hb7viDWz0ruk+/HsiVYhe376C3gMNEifoL1wE/0EXgrP39RgXwVYSAgad5vMFq4X1uf0A);strokeColor=#6a5628;spacingTop=-2;spacingBottom=-2;spacingLeft=-2;spacingRight=-2;labelBackgroundColor=none;rounded=1;html=1;whiteSpace=wrap;horizontal=1;fontSize=9;" vertex="1" parent="flix.wan.office.sp.02_0">
    <mxGeometry x="0" y="5" width="66" height="40" as="geometry" />
</mxCell><object label="" id="flix.wan.office.sp.02" title="SP02" provider="Ростелеком" bandwidth="10000" wan_ip="10.20.14.0/24" description="Сеть SP провайдера резервного транспортного канала" type="WAN" segment="flix.network_segment.transport" OID="flix.wan.office.sp.02" schema="seaf.ta.services.network">
    <mxCell style="shape=mxgraph.cisco.routers.router;sketch=0;html=1;pointerEvents=1;dashed=0;fillColor=#036897;strokeColor=#ffffff;strokeWidth=2;verticalLabelPosition=bottom;verticalAlign=top;align=center;outlineConnect=0;labelBackgroundColor=default;fontSize=12;fontColor=#FFFFFF;" vertex="1" parent="flix.wan.office.sp.02_0">
      <mxGeometry x="60" y="25" width="28" height="22" as="geometry" />
    </mxCell>
</object><mxCell id="flix.wan.office.sp.02_3" value="&lt;div style=&quot;font-size: 1px&quot;&gt;&lt;p style=&quot;align:center;margin-left:0;margin-right:0;margin-top:0px;margin-bottom:0px;text-indent:0;valign:middle;direction:ltr;&quot;&gt;&lt;font style=&quot;font-size: 7.06px; font-family: Calibri; color: rgb(0, 0, 0); direction: ltr; letter-spacing: 0px; line-height: 100%; opacity: 1;&quot;&gt;&lt;b&gt;SP02 Router&lt;/b&gt;&lt;/font&gt;&lt;font style=&quot;font-size: 7.06px; font-family: Calibri; color: rgb(0, 0, 0); direction: ltr; letter-spacing: 0px; line-height: 100%; opacity: 1;&quot;&gt;&lt;br&gt;&lt;/font&gt;&lt;/p&gt;&lt;/div&gt;" style="verticalAlign=middle;align=center;vsdxID=12895;fillColor=#ffff00;gradientColor=none;fillOpacity=40;shape=stencil(nZBLDoAgDERP0z3SIyjew0SURgSD+Lu9kMZoXLhwN9O+tukAlrNpJg1SzDH4QW/URgNYgZTkjA4UkwJUgGXng+6DX1zLfmoymdXo17xh5zmRJ6Q42BWCfc2oJfdAr+Yv+AP9Cb7OJ3H/2JG1HNGz/84klThPVCc=);strokeColor=none;spacingTop=-3;spacingBottom=-3;spacingLeft=-3;spacingRight=-3;labelBackgroundColor=none;rounded=0;html=1;whiteSpace=wrap;" vertex="1" parent="flix.wan.office.sp.02_0">
    <mxGeometry x="70" y="45" width="39" height="18" as="geometry" />
</mxCell><object label="&lt;div style=&quot;font-size: 1px&quot;&gt;&lt;p style=&quot;align:center;margin-left:0;margin-right:0;margin-top:0px;margin-bottom:0px;text-indent:0;valign:middle;direction:ltr;&quot;&gt;&lt;font style=&quot;font-size:9.88px;font-family:Calibri;color:#000000;direction:ltr;letter-spacing:0px;line-height:90%;opacity:1&quot;&gt;&lt;b&gt;OF-EXT LAN&lt;/b&gt;&lt;/font&gt;&lt;font style=&quot;font-size:9.88px;font-family:Calibri;color:#000000;direction:ltr;letter-spacing:0px;line-height:90%;opacity:1&quot;&gt;  &lt;/font&gt;&lt;font style=&quot;font-size:8.47px;font-family:Calibri;color:#000000;direction:ltr;letter-spacing:0px;line-height:90%;opacity:1&quot;&gt;192.168.10.0/24&lt;/font&gt;&lt;font style=&quot;font-size:11.29px;font-family:Calibri;color:#000000;direction:ltr;letter-spacing:0px;line-height:90%;opacity:1&quot;&gt;&lt;b&gt;&lt;br/&gt;&lt;/b&gt;&lt;/font&gt;&lt;/p&gt;&lt;/div&gt;" id="flix.lan.office.ext.lan" title="OF-EXT LAN" type="LAN" lan_type="Проводная" segment="flix.network_segment.office.access" vlan="13" ipnetwork="192.168.10.0/24" description="Core сети УС офиса" OID="flix.lan.office.ext.lan" schema="seaf.ta.services.network">
  <mxCell style="verticalAlign=middle;align=center;vsdxID=35397;rotation=270;fillColor=#c0cfe2;gradientColor=none;shape=stencil(nZFLDsIwDERP4y0KyQKxLuUCnCAihliEpEpL+ZyetANS6YJFs7JnXmxpTKZqvW2YtGq7nC58F9d5MjvSWqLnLF2pyNRkqlPKfM7pFh36xhZSq1Fhhz/rgdbK5uNBXgxts9r+PjAYck39sPwBVMF6foYp9HugQeIE/ZqL4D/oQnC2vhRjPAhOQkC6U38eZ5FwClO/AQ==);strokeColor=#000000;labelBackgroundColor=none;rounded=1;html=1;whiteSpace=wrap;" vertex="1" parent="flix.network_segment.office.access">
    <mxGeometry x="-10" y="140" width="200" height="20" as="geometry" />
  </mxCell>
</object><object label="&lt;div style=&quot;font-size: 1px&quot;&gt;&lt;p style=&quot;align:center;margin-left:0;margin-right:0;margin-top:0px;margin-bottom:0px;text-indent:0;valign:middle;direction:ltr;&quot;&gt;&lt;font style=&quot;font-size:9.88px;font-family:Calibri;color:#000000;direction:ltr;letter-spacing:0px;line-height:90%;opacity:1&quot;&gt;&lt;b&gt;WiFi Guest LAN&lt;/b&gt;&lt;/font&gt;&lt;font style=&quot;font-size:9.88px;font-family:Calibri;color:#000000;direction:ltr;letter-spacing:0px;line-height:90%;opacity:1&quot;&gt;  &lt;/font&gt;&lt;font style=&quot;font-size:8.47px;font-family:Calibri;color:#000000;direction:ltr;letter-spacing:0px;line-height:90%;opacity:1&quot;&gt;192.168.11.0/24&lt;/font&gt;&lt;font style=&quot;font-size:11.29px;font-family:Calibri;color:#000000;direction:ltr;letter-spacing:0px;line-height:90%;opacity:1&quot;&gt;&lt;b&gt;&lt;br/&gt;&lt;/b&gt;&lt;/font&gt;&lt;/p&gt;&lt;/div&gt;" id="flix.lan.office.wifi.guest" title="WiFi Guest LAN" type="LAN" lan_type="Беспроводная" segment="flix.network_segment.office.access" vlan="14" ipnetwork="192.168.11.0/24" description="Сеть гостевого WiFi" OID="flix.lan.office.wifi.guest" schema="seaf.ta.services.network">
  <mxCell style="verticalAlign=middle;align=center;vsdxID=35397;rotation=270;fillColor=#c0cfe2;gradientColor=none;shape=stencil(nZFLDsIwDERP4y0KyQKxLuUCnCAihliEpEpL+ZyetANS6YJFs7JnXmxpTKZqvW2YtGq7nC58F9d5MjvSWqLnLF2pyNRkqlPKfM7pFh36xhZSq1Fhhz/rgdbK5uNBXgxts9r+PjAYck39sPwBVMF6foYp9HugQeIE/ZqL4D/oQnC2vhRjPAhOQkC6U38eZ5FwClO/AQ==);strokeColor=#000000;labelBackgroundColor=none;rounded=1;html=1;whiteSpace=wrap;" vertex="1" parent="flix.network_segment.office.access">
    <mxGeometry x="-10" y="380" width="200" height="20" as="geometry" />
  </mxCell>
</object><object label="&lt;div style=&quot;font-size: 1px&quot;&gt;&lt;p style=&quot;align:center;margin-left:0;margin-right:0;margin-top:0px;margin-bottom:0px;text-indent:0;valign:middle;direction:ltr;&quot;&gt;&lt;font style=&quot;font-size:9.88px;font-family:Calibri;color:#000000;direction:ltr;letter-spacing:0px;line-height:90%;opacity:1&quot;&gt;&lt;b&gt;OF-Security&lt;/b&gt;&lt;/font&gt;&lt;font style=&quot;font-size:9.88px;font-family:Calibri;color:#000000;direction:ltr;letter-spacing:0px;line-height:90%;opacity:1&quot;&gt;  &lt;/font&gt;&lt;font style=&quot;font-size:8.47px;font-family:Calibri;color:#000000;direction:ltr;letter-spacing:0px;line-height:90%;opacity:1&quot;&gt;192.168.12.0/24&lt;/font&gt;&lt;font style=&quot;font-size:11.29px;font-family:Calibri;color:#000000;direction:ltr;letter-spacing:0px;line-height:90%;opacity:1&quot;&gt;&lt;b&gt;&lt;br/&gt;&lt;/b&gt;&lt;/font&gt;&lt;/p&gt;&lt;/div&gt;" id="flix.lan.office.security" title="OF-Security" type="LAN" lan_type="Проводная" segment="flix.network_segment.office.access" vlan="15" ipnetwork="192.168.12.0/24" description="Сеть систем безопасности офиса" OID="flix.lan.office.security" schema="seaf.ta.services.network">
  <mxCell style="verticalAlign=middle;align=center;vsdxID=35397;rotation=270;fillColor=#c0cfe2;gradientColor=none;shape=stencil(nZFLDsIwDERP4y0KyQKxLuUCnCAihliEpEpL+ZyetANS6YJFs7JnXmxpTKZqvW2YtGq7nC58F9d5MjvSWqLnLF2pyNRkqlPKfM7pFh36xhZSq1Fhhz/rgdbK5uNBXgxts9r+PjAYck39sPwBVMF6foYp9HugQeIE/ZqL4D/oQnC2vhRjPAhOQkC6U38eZ5FwClO/AQ==);strokeColor=#000000;labelBackgroundColor=none;rounded=1;html=1;whiteSpace=wrap;" vertex="1" parent="flix.network_segment.office.access">
    <mxGeometry x="-10" y="620" width="200" height="20" as="geometry" />
  </mxCell>
</object><object label="&lt;div style=&quot;font-size: 1px&quot;&gt;&lt;p style=&quot;align:center;margin-left:0;margin-right:0;margin-top:0px;margin-bottom:0px;text-indent:0;valign:middle;direction:ltr;&quot;&gt;&lt;font style=&quot;font-size:9.88px;font-family:Calibri;color:#000000;direction:ltr;letter-spacing:0px;line-height:90%;opacity:1&quot;&gt;&lt;b&gt;OF-Guest Internet EDGE LAN&lt;/b&gt;&lt;/font&gt;&lt;font style=&quot;font-size:9.88px;font-family:Calibri;color:#000000;direction:ltr;letter-spacing:0px;line-height:90%;opacity:1&quot;&gt;  &lt;/font&gt;&lt;font style=&quot;font-size:8.47px;font-family:Calibri;color:#000000;direction:ltr;letter-spacing:0px;line-height:90%;opacity:1&quot;&gt;10.10.10.0/24&lt;/font&gt;&lt;font style=&quot;font-size:11.29px;font-family:Calibri;color:#000000;direction:ltr;letter-spacing:0px;line-height:90%;opacity:1&quot;&gt;&lt;b&gt;&lt;br/&gt;&lt;/b&gt;&lt;/font&gt;&lt;/p&gt;&lt;/div&gt;" id="flix.lan.office.inet_guest_edge" title="OF-Guest Internet EDGE LAN" type="LAN" lan_type="Проводная" segment="flix.network_segment.office.inet_edge" vlan="10" ipnetwork="10.10.10.0/24" description="Сеть модуля подключения к внешним сетям - гостевая" OID="flix.lan.office.inet_guest_edge" schema="seaf.ta.services.network">
  <mxCell style="verticalAlign=middle;align=center;vsdxID=35397;rotation=270;fillColor=#c0cfe2;gradientColor=none;shape=stencil(nZFLDsIwDERP4y0KyQKxLuUCnCAihliEpEpL+ZyetANS6YJFs7JnXmxpTKZqvW2YtGq7nC58F9d5MjvSWqLnLF2pyNRkqlPKfM7pFh36xhZSq1Fhhz/rgdbK5uNBXgxts9r+PjAYck39sPwBVMF6foYp9HugQeIE/ZqL4D/oQnC2vhRjPAhOQkC6U38eZ5FwClO/AQ==);strokeColor=#000000;labelBackgroundColor=none;rounded=1;html=1;whiteSpace=wrap;" vertex="1" parent="flix.network_segment.office.inet_edge">
    <mxGeometry x="-10" y="140" width="200" height="20" as="geometry" />
  </mxCell>
</object><object label="&lt;div style=&quot;font-size: 1px&quot;&gt;&lt;p style=&quot;align:center;margin-left:0;margin-right:0;margin-top:0px;margin-bottom:0px;text-indent:0;valign:middle;direction:ltr;&quot;&gt;&lt;font style=&quot;font-size:9.88px;font-family:Calibri;color:#000000;direction:ltr;letter-spacing:0px;line-height:90%;opacity:1&quot;&gt;&lt;b&gt;OF-Internet EDGE LAN&lt;/b&gt;&lt;/font&gt;&lt;font style=&quot;font-size:9.88px;font-family:Calibri;color:#000000;direction:ltr;letter-spacing:0px;line-height:90%;opacity:1&quot;&gt;  &lt;/font&gt;&lt;font style=&quot;font-size:8.47px;font-family:Calibri;color:#000000;direction:ltr;letter-spacing:0px;line-height:90%;opacity:1&quot;&gt;10.10.11.0/24&lt;/font&gt;&lt;font style=&quot;font-size:11.29px;font-family:Calibri;color:#000000;direction:ltr;letter-spacing:0px;line-height:90%;opacity:1&quot;&gt;&lt;b&gt;&lt;br/&gt;&lt;/b&gt;&lt;/font&gt;&lt;/p&gt;&lt;/div&gt;" id="flix.lan.office.inet_edge" title="OF-Internet EDGE LAN" type="LAN" lan_type="Проводная" segment="flix.network_segment.office.inet_edge" vlan="11" ipnetwork="10.10.11.0/24" description="Сеть модуля подключения к внешним сетям" OID="flix.lan.office.inet_edge" schema="seaf.ta.services.network">
  <mxCell style="verticalAlign=middle;align=center;vsdxID=35397;rotation=270;fillColor=#c0cfe2;gradientColor=none;shape=stencil(nZFLDsIwDERP4y0KyQKxLuUCnCAihliEpEpL+ZyetANS6YJFs7JnXmxpTKZqvW2YtGq7nC58F9d5MjvSWqLnLF2pyNRkqlPKfM7pFh36xhZSq1Fhhz/rgdbK5uNBXgxts9r+PjAYck39sPwBVMF6foYp9HugQeIE/ZqL4D/oQnC2vhRjPAhOQkC6U38eZ5FwClO/AQ==);strokeColor=#000000;labelBackgroundColor=none;rounded=1;html=1;whiteSpace=wrap;" vertex="1" parent="flix.network_segment.office.inet_edge">
    <mxGeometry x="-10" y="380" width="200" height="20" as="geometry" />
  </mxCell>
</object><object label="&lt;div style=&quot;font-size: 1px&quot;&gt;&lt;p style=&quot;align:center;margin-left:0;margin-right:0;margin-top:0px;margin-bottom:0px;text-indent:0;valign:middle;direction:ltr;&quot;&gt;&lt;font style=&quot;font-size:9.88px;font-family:Calibri;color:#000000;direction:ltr;letter-spacing:0px;line-height:90%;opacity:1&quot;&gt;&lt;b&gt;OF-Internet EDGE LAN&lt;/b&gt;&lt;/font&gt;&lt;font style=&quot;font-size:9.88px;font-family:Calibri;color:#000000;direction:ltr;letter-spacing:0px;line-height:90%;opacity:1&quot;&gt;  &lt;/font&gt;&lt;font style=&quot;font-size:8.47px;font-family:Calibri;color:#000000;direction:ltr;letter-spacing:0px;line-height:90%;opacity:1&quot;&gt;10.10.11.0/24&lt;/font&gt;&lt;font style=&quot;font-size:11.29px;font-family:Calibri;color:#000000;direction:ltr;letter-spacing:0px;line-height:90%;opacity:1&quot;&gt;&lt;b&gt;&lt;br/&gt;&lt;/b&gt;&lt;/font&gt;&lt;/p&gt;&lt;/div&gt;" id="flix.lan.dc.inet_edge" title="OF-Internet EDGE LAN" type="LAN" lan_type="Проводная" segment="flix.network_segment.office.inet_edge" vlan="11" ipnetwork="10.10.11.0/24" description="Сеть модуля подключения к внешним сетям" OID="flix.lan.dc.inet_edge" schema="seaf.ta.services.network">
  <mxCell style="verticalAlign=middle;align=center;vsdxID=35397;rotation=270;fillColor=#c0cfe2;gradientColor=none;shape=stencil(nZFLDsIwDERP4y0KyQKxLuUCnCAihliEpEpL+ZyetANS6YJFs7JnXmxpTKZqvW2YtGq7nC58F9d5MjvSWqLnLF2pyNRkqlPKfM7pFh36xhZSq1Fhhz/rgdbK5uNBXgxts9r+PjAYck39sPwBVMF6foYp9HugQeIE/ZqL4D/oQnC2vhRjPAhOQkC6U38eZ5FwClO/AQ==);strokeColor=#000000;labelBackgroundColor=none;rounded=1;html=1;whiteSpace=wrap;" vertex="1" parent="flix.network_segment.office.inet_edge">
    <mxGeometry x="-10" y="620" width="200" height="20" as="geometry" />
  </mxCell>
</object><object label="&lt;div style=&quot;font-size: 1px&quot;&gt;&lt;p style=&quot;align:center;margin-left:0;margin-right:0;margin-top:0px;margin-bottom:0px;text-indent:0;valign:middle;direction:ltr;&quot;&gt;&lt;font style=&quot;font-size:9.88px;font-family:Calibri;color:#000000;direction:ltr;letter-spacing:0px;line-height:90%;opacity:1&quot;&gt;&lt;b&gt;OF-INT LAN&lt;/b&gt;&lt;/font&gt;&lt;font style=&quot;font-size:9.88px;font-family:Calibri;color:#000000;direction:ltr;letter-spacing:0px;line-height:90%;opacity:1&quot;&gt;  &lt;/font&gt;&lt;font style=&quot;font-size:8.47px;font-family:Calibri;color:#000000;direction:ltr;letter-spacing:0px;line-height:90%;opacity:1&quot;&gt;192.168.1.0/24&lt;/font&gt;&lt;font style=&quot;font-size:11.29px;font-family:Calibri;color:#000000;direction:ltr;letter-spacing:0px;line-height:90%;opacity:1&quot;&gt;&lt;b&gt;&lt;br/&gt;&lt;/b&gt;&lt;/font&gt;&lt;/p&gt;&lt;/div&gt;" id="flix.lan.office.int.lan" title="OF-INT LAN" type="LAN" lan_type="Проводная" segment="flix.network_segment.office.int" vlan="16" ipnetwork="192.168.1.0/24" description="Core сети УС офиса" OID="flix.lan.office.int.lan" schema="seaf.ta.services.network">
  <mxCell style="verticalAlign=middle;align=center;vsdxID=35397;rotation=270;fillColor=#c0cfe2;gradientColor=none;shape=stencil(nZFLDsIwDERP4y0KyQKxLuUCnCAihliEpEpL+ZyetANS6YJFs7JnXmxpTKZqvW2YtGq7nC58F9d5MjvSWqLnLF2pyNRkqlPKfM7pFh36xhZSq1Fhhz/rgdbK5uNBXgxts9r+PjAYck39sPwBVMF6foYp9HugQeIE/ZqL4D/oQnC2vhRjPAhOQkC6U38eZ5FwClO/AQ==);strokeColor=#000000;labelBackgroundColor=none;rounded=1;html=1;whiteSpace=wrap;" vertex="1" parent="flix.network_segment.office.int">
    <mxGeometry x="-10" y="140" width="200" height="20" as="geometry" />
  </mxCell>
</object><object label="&lt;div style=&quot;font-size: 1px&quot;&gt;&lt;p style=&quot;align:center;margin-left:0;margin-right:0;margin-top:0px;margin-bottom:0px;text-indent:0;valign:middle;direction:ltr;&quot;&gt;&lt;font style=&quot;font-size:9.88px;font-family:Calibri;color:#000000;direction:ltr;letter-spacing:0px;line-height:90%;opacity:1&quot;&gt;&lt;b&gt;Wi-Fi АРМ&lt;/b&gt;&lt;/font&gt;&lt;font style=&quot;font-size:9.88px;font-family:Calibri;color:#000000;direction:ltr;letter-spacing:0px;line-height:90%;opacity:1&quot;&gt;  &lt;/font&gt;&lt;font style=&quot;font-size:8.47px;font-family:Calibri;color:#000000;direction:ltr;letter-spacing:0px;line-height:90%;opacity:1&quot;&gt;192.168.3.0/24&lt;/font&gt;&lt;font style=&quot;font-size:11.29px;font-family:Calibri;color:#000000;direction:ltr;letter-spacing:0px;line-height:90%;opacity:1&quot;&gt;&lt;b&gt;&lt;br/&gt;&lt;/b&gt;&lt;/font&gt;&lt;/p&gt;&lt;/div&gt;" id="flix.lan.office.wifi.arm" title="Wi-Fi АРМ" type="LAN" lan_type="Беспроводная" segment="flix.network_segment.office.int" vlan="17" ipnetwork="192.168.3.0/24" description="Беспроводная сеть АРМ" OID="flix.lan.office.wifi.arm" schema="seaf.ta.services.network">
  <mxCell style="verticalAlign=middle;align=center;vsdxID=35397;rotation=270;fillColor=#c0cfe2;gradientColor=none;shape=stencil(nZFLDsIwDERP4y0KyQKxLuUCnCAihliEpEpL+ZyetANS6YJFs7JnXmxpTKZqvW2YtGq7nC58F9d5MjvSWqLnLF2pyNRkqlPKfM7pFh36xhZSq1Fhhz/rgdbK5uNBXgxts9r+PjAYck39sPwBVMF6foYp9HugQeIE/ZqL4D/oQnC2vhRjPAhOQkC6U38eZ5FwClO/AQ==);strokeColor=#000000;labelBackgroundColor=none;rounded=1;html=1;whiteSpace=wrap;" vertex="1" parent="flix.network_segment.office.int">
    <mxGeometry x="-10" y="380" width="200" height="20" as="geometry" />
  </mxCell>
</object><object label="&lt;div style=&quot;font-size: 1px&quot;&gt;&lt;p style=&quot;align:center;margin-left:0;margin-right:0;margin-top:0px;margin-bottom:0px;text-indent:0;valign:middle;direction:ltr;&quot;&gt;&lt;font style=&quot;font-size:9.88px;font-family:Calibri;color:#000000;direction:ltr;letter-spacing:0px;line-height:90%;opacity:1&quot;&gt;&lt;b&gt;Wired АРМ&lt;/b&gt;&lt;/font&gt;&lt;font style=&quot;font-size:9.88px;font-family:Calibri;color:#000000;direction:ltr;letter-spacing:0px;line-height:90%;opacity:1&quot;&gt;  &lt;/font&gt;&lt;font style=&quot;font-size:8.47px;font-family:Calibri;color:#000000;direction:ltr;letter-spacing:0px;line-height:90%;opacity:1&quot;&gt;192.168.4.0/24&lt;/font&gt;&lt;font style=&quot;font-size:11.29px;font-family:Calibri;color:#000000;direction:ltr;letter-spacing:0px;line-height:90%;opacity:1&quot;&gt;&lt;b&gt;&lt;br/&gt;&lt;/b&gt;&lt;/font&gt;&lt;/p&gt;&lt;/div&gt;" id="flix.lan.office.wired.ARM" title="Wired АРМ" type="LAN" lan_type="Проводная" segment="flix.network_segment.office.int" vlan="18" ipnetwork="192.168.4.0/24" description="Проводная сеть АРМ" OID="flix.lan.office.wired.ARM" schema="seaf.ta.services.network">
  <mxCell style="verticalAlign=middle;align=center;vsdxID=35397;rotation=270;fillColor=#c0cfe2;gradientColor=none;shape=stencil(nZFLDsIwDERP4y0KyQKxLuUCnCAihliEpEpL+ZyetANS6YJFs7JnXmxpTKZqvW2YtGq7nC58F9d5MjvSWqLnLF2pyNRkqlPKfM7pFh36xhZSq1Fhhz/rgdbK5uNBXgxts9r+PjAYck39sPwBVMF6foYp9HugQeIE/ZqL4D/oQnC2vhRjPAhOQkC6U38eZ5FwClO/AQ==);strokeColor=#000000;labelBackgroundColor=none;rounded=1;html=1;whiteSpace=wrap;" vertex="1" parent="flix.network_segment.office.int">
    <mxGeometry x="-10" y="620" width="200" height="20" as="geometry" />
  </mxCell>
</object><object label="&lt;div style=&quot;font-size: 1px&quot;&gt;&lt;p style=&quot;align:center;margin-left:0;margin-right:0;margin-top:0px;margin-bottom:0px;text-indent:0;valign:middle;direction:ltr;&quot;&gt;&lt;font style=&quot;font-size:9.88px;font-family:Calibri;color:#000000;direction:ltr;letter-spacing:0px;line-height:90%;opacity:1&quot;&gt;&lt;b&gt;АРМ Admin&lt;/b&gt;&lt;/font&gt;&lt;font style=&quot;font-size:9.88px;font-family:Calibri;color:#000000;direction:ltr;letter-spacing:0px;line-height:90%;opacity:1&quot;&gt;  &lt;/font&gt;&lt;font style=&quot;font-size:8.47px;font-family:Calibri;color:#000000;direction:ltr;letter-spacing:0px;line-height:90%;opacity:1&quot;&gt;192.168.5.0/24&lt;/font&gt;&lt;font style=&quot;font-size:11.29px;font-family:Calibri;color:#000000;direction:ltr;letter-spacing:0px;line-height:90%;opacity:1&quot;&gt;&lt;b&gt;&lt;br/&gt;&lt;/b&gt;&lt;/font&gt;&lt;/p&gt;&lt;/div&gt;" id="flix.lan.office.admin.ARM" title="АРМ Admin" type="LAN" lan_type="Проводная" segment="flix.network_segment.office.int" vlan="19" ipnetwork="192.168.5.0/24" description="Сеть АРМ администраторов" OID="flix.lan.office.admin.ARM" schema="seaf.ta.services.network">
  <mxCell style="verticalAlign=middle;align=center;vsdxID=35397;rotation=270;fillColor=#c0cfe2;gradientColor=none;shape=stencil(nZFLDsIwDERP4y0KyQKxLuUCnCAihliEpEpL+ZyetANS6YJFs7JnXmxpTKZqvW2YtGq7nC58F9d5MjvSWqLnLF2pyNRkqlPKfM7pFh36xhZSq1Fhhz/rgdbK5uNBXgxts9r+PjAYck39sPwBVMF6foYp9HugQeIE/ZqL4D/oQnC2vhRjPAhOQkC6U38eZ5FwClO/AQ==);strokeColor=#000000;labelBackgroundColor=none;rounded=1;html=1;whiteSpace=wrap;" vertex="1" parent="flix.network_segment.office.int">
    <mxGeometry x="-10" y="860" width="200" height="20" as="geometry" />
  </mxCell>
</object><object label="&lt;div style=&quot;font-size: 1px&quot;&gt;&lt;p style=&quot;align:center;margin-left:0;margin-right:0;margin-top:0px;margin-bottom:0px;text-indent:0;valign:middle;direction:ltr;&quot;&gt;&lt;font style=&quot;font-size:9.88px;font-family:Calibri;color:#000000;direction:ltr;letter-spacing:0px;line-height:90%;opacity:1&quot;&gt;&lt;b&gt;Printers&lt;/b&gt;&lt;/font&gt;&lt;font style=&quot;font-size:9.88px;font-family:Calibri;color:#000000;direction:ltr;letter-spacing:0px;line-height:90%;opacity:1&quot;&gt;  &lt;/font&gt;&lt;font style=&quot;font-size:8.47px;font-family:Calibri;color:#000000;direction:ltr;letter-spacing:0px;line-height:90%;opacity:1&quot;&gt;192.168.6.0/24&lt;/font&gt;&lt;font style=&quot;font-size:11.29px;font-family:Calibri;color:#000000;direction:ltr;letter-spacing:0px;line-height:90%;opacity:1&quot;&gt;&lt;b&gt;&lt;br/&gt;&lt;/b&gt;&lt;/font&gt;&lt;/p&gt;&lt;/div&gt;" id="flix.lan.office.printers" title="Printers" type="LAN" lan_type="Проводная" segment="flix.network_segment.office.int" vlan="20" ipnetwork="192.168.6.0/24" description="Сеть печатающих устройств" OID="flix.lan.office.printers" schema="seaf.ta.services.network">
  <mxCell style="verticalAlign=middle;align=center;vsdxID=35397;rotation=270;fillColor=#c0cfe2;gradientColor=none;shape=stencil(nZFLDsIwDERP4y0KyQKxLuUCnCAihliEpEpL+ZyetANS6YJFs7JnXmxpTKZqvW2YtGq7nC58F9d5MjvSWqLnLF2pyNRkqlPKfM7pFh36xhZSq1Fhhz/rgdbK5uNBXgxts9r+PjAYck39sPwBVMF6foYp9HugQeIE/ZqL4D/oQnC2vhRjPAhOQkC6U38eZ5FwClO/AQ==);strokeColor=#000000;labelBackgroundColor=none;rounded=1;html=1;whiteSpace=wrap;" vertex="1" parent="flix.network_segment.office.int">
    <mxGeometry x="410" y="140" width="200" height="20" as="geometry" />
  </mxCell>
</object><object label="&lt;div style=&quot;font-size: 1px&quot;&gt;&lt;p style=&quot;align:center;margin-left:0;margin-right:0;margin-top:0px;margin-bottom:0px;text-indent:0;valign:middle;direction:ltr;&quot;&gt;&lt;font style=&quot;font-size:9.88px;font-family:Calibri;color:#000000;direction:ltr;letter-spacing:0px;line-height:90%;opacity:1&quot;&gt;&lt;b&gt;IP Phones&lt;/b&gt;&lt;/font&gt;&lt;font style=&quot;font-size:9.88px;font-family:Calibri;color:#000000;direction:ltr;letter-spacing:0px;line-height:90%;opacity:1&quot;&gt;  &lt;/font&gt;&lt;font style=&quot;font-size:8.47px;font-family:Calibri;color:#000000;direction:ltr;letter-spacing:0px;line-height:90%;opacity:1&quot;&gt;192.168.7.0/24&lt;/font&gt;&lt;font style=&quot;font-size:11.29px;font-family:Calibri;color:#000000;direction:ltr;letter-spacing:0px;line-height:90%;opacity:1&quot;&gt;&lt;b&gt;&lt;br/&gt;&lt;/b&gt;&lt;/font&gt;&lt;/p&gt;&lt;/div&gt;" id="flix.lan.office.ipphones" title="IP Phones" type="LAN" lan_type="Проводная" segment="flix.network_segment.office.int" vlan="21" ipnetwork="192.168.7.0/24" description="Сеть IP телефонов" OID="flix.lan.office.ipphones" schema="seaf.ta.services.network">
  <mxCell style="verticalAlign=middle;align=center;vsdxID=35397;rotation=270;fillColor=#c0cfe2;gradientColor=none;shape=stencil(nZFLDsIwDERP4y0KyQKxLuUCnCAihliEpEpL+ZyetANS6YJFs7JnXmxpTKZqvW2YtGq7nC58F9d5MjvSWqLnLF2pyNRkqlPKfM7pFh36xhZSq1Fhhz/rgdbK5uNBXgxts9r+PjAYck39sPwBVMF6foYp9HugQeIE/ZqL4D/oQnC2vhRjPAhOQkC6U38eZ5FwClO/AQ==);strokeColor=#000000;labelBackgroundColor=none;rounded=1;html=1;whiteSpace=wrap;" vertex="1" parent="flix.network_segment.office.int">
    <mxGeometry x="410" y="380" width="200" height="20" as="geometry" />
  </mxCell>
</object><object label="&lt;div style=&quot;font-size: 1px&quot;&gt;&lt;p style=&quot;align:center;margin-left:0;margin-right:0;margin-top:0px;margin-bottom:0px;text-indent:0;valign:middle;direction:ltr;&quot;&gt;&lt;font style=&quot;font-size:9.88px;font-family:Calibri;color:#000000;direction:ltr;letter-spacing:0px;line-height:90%;opacity:1&quot;&gt;&lt;b&gt;OF-MGMT&lt;/b&gt;&lt;/font&gt;&lt;font style=&quot;font-size:9.88px;font-family:Calibri;color:#000000;direction:ltr;letter-spacing:0px;line-height:90%;opacity:1&quot;&gt;  &lt;/font&gt;&lt;font style=&quot;font-size:8.47px;font-family:Calibri;color:#000000;direction:ltr;letter-spacing:0px;line-height:90%;opacity:1&quot;&gt;192.168.8.0/24&lt;/font&gt;&lt;font style=&quot;font-size:11.29px;font-family:Calibri;color:#000000;direction:ltr;letter-spacing:0px;line-height:90%;opacity:1&quot;&gt;&lt;b&gt;&lt;br/&gt;&lt;/b&gt;&lt;/font&gt;&lt;/p&gt;&lt;/div&gt;" id="flix.lan.office.mgmt" title="OF-MGMT" type="LAN" lan_type="Проводная" segment="flix.network_segment.office.int" vlan="22" ipnetwork="192.168.8.0/24" description="Сеть интерфейсов управления" OID="flix.lan.office.mgmt" schema="seaf.ta.services.network">
  <mxCell style="verticalAlign=middle;align=center;vsdxID=35397;rotation=270;fillColor=#c0cfe2;gradientColor=none;shape=stencil(nZFLDsIwDERP4y0KyQKxLuUCnCAihliEpEpL+ZyetANS6YJFs7JnXmxpTKZqvW2YtGq7nC58F9d5MjvSWqLnLF2pyNRkqlPKfM7pFh36xhZSq1Fhhz/rgdbK5uNBXgxts9r+PjAYck39sPwBVMF6foYp9HugQeIE/ZqL4D/oQnC2vhRjPAhOQkC6U38eZ5FwClO/AQ==);strokeColor=#000000;labelBackgroundColor=none;rounded=1;html=1;whiteSpace=wrap;" vertex="1" parent="flix.network_segment.office.int">
    <mxGeometry x="410" y="620" width="200" height="20" as="geometry" />
  </mxCell>
</object><object label="&lt;div style=&quot;font-size: 1px&quot;&gt;&lt;p style=&quot;align:center;margin-left:0;margin-right:0;margin-top:0px;margin-bottom:0px;text-indent:0;valign:middle;direction:ltr;&quot;&gt;&lt;font style=&quot;font-size:9.88px;font-family:Calibri;color:#000000;direction:ltr;letter-spacing:0px;line-height:90%;opacity:1&quot;&gt;&lt;b&gt;OF-WAN EDGE LAN&lt;/b&gt;&lt;/font&gt;&lt;font style=&quot;font-size:9.88px;font-family:Calibri;color:#000000;direction:ltr;letter-spacing:0px;line-height:90%;opacity:1&quot;&gt;  &lt;/font&gt;&lt;font style=&quot;font-size:8.47px;font-family:Calibri;color:#000000;direction:ltr;letter-spacing:0px;line-height:90%;opacity:1&quot;&gt;10.10.12.0/24&lt;/font&gt;&lt;font style=&quot;font-size:11.29px;font-family:Calibri;color:#000000;direction:ltr;letter-spacing:0px;line-height:90%;opacity:1&quot;&gt;&lt;b&gt;&lt;br/&gt;&lt;/b&gt;&lt;/font&gt;&lt;/p&gt;&lt;/div&gt;" id="flix.lan.office.wan_edge" title="OF-WAN EDGE LAN" type="LAN" lan_type="Проводная" segment="flix.network_segment.office.wan_edge" vlan="12" ipnetwork="10.10.12.0/24" description="Сеть модуля транспортной сети" OID="flix.lan.office.wan_edge" schema="seaf.ta.services.network">
  <mxCell style="verticalAlign=middle;align=center;vsdxID=35397;rotation=270;fillColor=#c0cfe2;gradientColor=none;shape=stencil(nZFLDsIwDERP4y0KyQKxLuUCnCAihliEpEpL+ZyetANS6YJFs7JnXmxpTKZqvW2YtGq7nC58F9d5MjvSWqLnLF2pyNRkqlPKfM7pFh36xhZSq1Fhhz/rgdbK5uNBXgxts9r+PjAYck39sPwBVMF6foYp9HugQeIE/ZqL4D/oQnC2vhRjPAhOQkC6U38eZ5FwClO/AQ==);strokeColor=#000000;labelBackgroundColor=none;rounded=1;html=1;whiteSpace=wrap;" vertex="1" parent="flix.network_segment.office.wan_edge">
    <mxGeometry x="-10" y="140" width="200" height="20" as="geometry" />
  </mxCell>
</object><object label="&lt;font style=&quot;color: light-dark(rgb(0, 0, 0), rgb(237, 237, 237)); line-height: 140%; font-size: 9px; &quot;&gt;&amp;nbsp;Guest Router&amp;nbsp;&lt;/font&gt;" id="flix.network.guest.router" title="Guest Router" description="Пограничный маршрутизатор гостевого интернет провайдера" realization_type="Физический" model="ASR 1001-X" type="ROUTER" segment_id="flix.network_segment.office.inet_edge" purpose="Пограничный маршрутизатор" address="192.168.8.15" network_connection="['flix.wan.office.isp.guest', 'flix.lan.office.inet_guest_edge']" OID="flix.network.guest.router" schema="seaf.ta.components.network">
      <mxCell style="shape=mxgraph.cisco.routers.router;sketch=0;html=1;pointerEvents=1;dashed=0;fillColor=#036897;strokeColor=#ffffff;strokeWidth=2;verticalLabelPosition=bottom;verticalAlign=top;align=center;outlineConnect=0;labelBackgroundColor=default;fontSize=12;fontColor=#FFFFFF;" parent="flix.network_segment.office.inet_edge" vertex="1">
        <mxGeometry x="20" y="40" width="40" height="30" as="geometry" />
      </mxCell>
</object><object label="&lt;font style=&quot;color: light-dark(rgb(0, 0, 0), rgb(237, 237, 237)); line-height: 140%; font-size: 9px; &quot;&gt;&amp;nbsp;Router 1&amp;nbsp;&lt;/font&gt;" id="flix.network.router.01" title="Router 1" description="Пограничный маршрутизатор ISP1" realization_type="Физический" model="ASR 1001-X" type="ROUTER" segment_id="flix.network_segment.office.inet_edge" purpose="Пограничный маршрутизатор" address="192.168.8.16" network_connection="['flix.wan.office.isp.01', 'flix.lan.office.inet_edge', 'flix.network.router.02']" OID="flix.network.router.01" schema="seaf.ta.components.network">
      <mxCell style="shape=mxgraph.cisco.routers.router;sketch=0;html=1;pointerEvents=1;dashed=0;fillColor=#036897;strokeColor=#ffffff;strokeWidth=2;verticalLabelPosition=bottom;verticalAlign=top;align=center;outlineConnect=0;labelBackgroundColor=default;fontSize=12;fontColor=#FFFFFF;" parent="flix.network_segment.office.inet_edge" vertex="1">
        <mxGeometry x="20" y="100" width="40" height="30" as="geometry" />
      </mxCell>
</object><object label="&lt;font style=&quot;color: light-dark(rgb(0, 0, 0), rgb(237, 237, 237)); line-height: 140%; font-size: 9px; &quot;&gt;&amp;nbsp;Router 2&amp;nbsp;&lt;/font&gt;" id="flix.network.router.02" title="Router 2" description="Пограничный маршрутизатор ISP2" realization_type="Физический" model="ASR 1001-X" type="ROUTER" segment_id="flix.network_segment.office.inet_edge" purpose="Пограничный маршрутизатор" address="192.168.8.17" network_connection="['flix.wan.office.isp.02', 'flix.lan.office.inet_edge']" OID="flix.network.router.02" schema="seaf.ta.components.network">
      <mxCell style="shape=mxgraph.cisco.routers.router;sketch=0;html=1;pointerEvents=1;dashed=0;fillColor=#036897;strokeColor=#ffffff;strokeWidth=2;verticalLabelPosition=bottom;verticalAlign=top;align=center;outlineConnect=0;labelBackgroundColor=default;fontSize=12;fontColor=#FFFFFF;" parent="flix.network_segment.office.inet_edge" vertex="1">
        <mxGeometry x="20" y="160" width="40" height="30" as="geometry" />
      </mxCell>
</object><object label="&lt;font style=&quot;color: light-dark(rgb(0, 0, 0), rgb(237, 237, 237)); line-height: 140%; font-size: 9px; &quot;&gt;&amp;nbsp;Router 3&amp;nbsp;&lt;/font&gt;" id="flix.network.router.03" title="Router 3" description="Пограничный маршрутизатор SP1" realization_type="Физический" model="ASR 1001-X" type="ROUTER" segment_id="flix.network_segment.office.wan_edge" purpose="Пограничный маршрутизатор" address="192.168.8.18" network_connection="['flix.wan.office.sp.01', 'flix.lan.office.wan_edge', 'flix.network.router.04']" OID="flix.network.router.03" schema="seaf.ta.components.network">
      <mxCell style="shape=mxgraph.cisco.routers.router;sketch=0;html=1;pointerEvents=1;dashed=0;fillColor=#036897;strokeColor=#ffffff;strokeWidth=2;verticalLabelPosition=bottom;verticalAlign=top;align=center;outlineConnect=0;labelBackgroundColor=default;fontSize=12;fontColor=#FFFFFF;" parent="flix.network_segment.office.wan_edge" vertex="1">
        <mxGeometry x="20" y="40" width="40" height="30" as="geometry" />
      </mxCell>
</object><object label="&lt;font style=&quot;color: light-dark(rgb(0, 0, 0), rgb(237, 237, 237)); line-height: 140%; font-size: 9px; &quot;&gt;&amp;nbsp;Router 4&amp;nbsp;&lt;/font&gt;" id="flix.network.router.04" title="Router 4" description="Пограничный маршрутизатор SP2" realization_type="Физический" model="ASR 1001-X" type="ROUTER" segment_id="flix.network_segment.office.wan_edge" purpose="Пограничный маршрутизатор" address="192.168.8.19" network_connection="['flix.wan.office.sp.02', 'flix.lan.office.wan_edge']" OID="flix.network.router.04" schema="seaf.ta.components.network">
      <mxCell style="shape=mxgraph.cisco.routers.router;sketch=0;html=1;pointerEvents=1;dashed=0;fillColor=#036897;strokeColor=#ffffff;strokeWidth=2;verticalLabelPosition=bottom;verticalAlign=top;align=center;outlineConnect=0;labelBackgroundColor=default;fontSize=12;fontColor=#FFFFFF;" parent="flix.network_segment.office.wan_edge" vertex="1">
        <mxGeometry x="20" y="100" width="40" height="30" as="geometry" />
      </mxCell>
</object><object label="&lt;font style=&quot;color: light-dark(rgb(0, 0, 0), rgb(237, 237, 237)); line-height: 140%; font-size: 9px; &quot;&gt;&amp;nbsp;Wireless Controller Guest&amp;nbsp;&lt;/font&gt;" id="flix.network.wificontroller.guest" title="Wireless Controller Guest" description="WIiFi Router Guest" realization_type="Физический" model="Cisco" type="Wireless Controller" segment_id="flix.network_segment.office.access" purpose="Controller сети WiFI Guest" address="192.168.8.20" network_connection="['flix.lan.office.wifi.guest']" OID="flix.network.wificontroller.guest" schema="seaf.ta.components.network">
      <mxCell style="shape=mxgraph.cisco.wireless.wlan_controller;sketch=0;html=1;pointerEvents=1;dashed=0;fillColor=#036897;strokeColor=#ffffff;strokeWidth=2;verticalLabelPosition=bottom;verticalAlign=top;align=center;outlineConnect=0;labelBackgroundColor=none;fontSize=9;fontColor=default;fontStyle=1;" parent="flix.network_segment.office.access" vertex="1">
        <mxGeometry x="120" y="40" width="38" height="19" as="geometry" />
      </mxCell>
</object><object label="&lt;font style=&quot;color: light-dark(rgb(0, 0, 0), rgb(237, 237, 237)); line-height: 140%; font-size: 9px; &quot;&gt;&amp;nbsp;Wireless Controller ARM&amp;nbsp;&lt;/font&gt;" id="flix.network.wificontroller.arm" title="Wireless Controller ARM" description="WIiFi Router ARM" realization_type="Физический" model="Cisco" type="Wireless Controller" segment_id="flix.network_segment.office.int" purpose="Controller сети WiFI ARM" address="192.168.8.20" network_connection="['flix.lan.office.wifi.arm']" OID="flix.network.wificontroller.arm" schema="seaf.ta.components.network">
      <mxCell style="shape=mxgraph.cisco.wireless.wlan_controller;sketch=0;html=1;pointerEvents=1;dashed=0;fillColor=#036897;strokeColor=#ffffff;strokeWidth=2;verticalLabelPosition=bottom;verticalAlign=top;align=center;outlineConnect=0;labelBackgroundColor=none;fontSize=9;fontColor=default;fontStyle=1;" parent="flix.network_segment.office.int" vertex="1">
        <mxGeometry x="120" y="40" width="38" height="19" as="geometry" />
      </mxCell>
</object><object label="&lt;font style=&quot;color: light-dark(rgb(0, 0, 0), rgb(237, 237, 237)); line-height: 140%; font-size: 9px; &quot;&gt;&amp;nbsp;NGFW 1&amp;nbsp;&lt;/font&gt;" id="flix.network.ngfw.01" title="NGFW 1" description="Пограничный NGFW 1" realization_type="Физический" model="4800F" type="FIREWALL" segment_id="flix.network_segment.office.access" purpose="Пограничный NGFW" address="192.168.8.21" network_connection="['flix.lan.office.inet_edge', 'flix.lan.office.ext.lan', 'flix.network.ngfw.02']" OID="flix.network.ngfw.01" schema="seaf.ta.components.network">
  <mxCell style="shape=mxgraph.cisco.security.firewall;html=1;pointerEvents=1;dashed=0;fillColor=#FF0000;strokeColor=#ffffff;strokeWidth=2;verticalLabelPosition=bottom;verticalAlign=top;align=center;outlineConnect=0;flipH=1;" parent="flix.network_segment.office.access" vertex="1">
    <mxGeometry x="30" y="30" width="20" height="60" as="geometry" />
  </mxCell>
</object><object label="&lt;font style=&quot;color: light-dark(rgb(0, 0, 0), rgb(237, 237, 237)); line-height: 140%; font-size: 9px; &quot;&gt;&amp;nbsp;NGFW 2&amp;nbsp;&lt;/font&gt;" id="flix.network.ngfw.02" title="NGFW 2" description="Пограничный NGFW 2" realization_type="Физический" model="4800F" type="FIREWALL" segment_id="flix.network_segment.office.access" purpose="Пограничный NGFW" address="192.168.8.22" network_connection="['flix.lan.office.inet_edge', 'flix.lan.office.ext.lan']" OID="flix.network.ngfw.02" schema="seaf.ta.components.network">
  <mxCell style="shape=mxgraph.cisco.security.firewall;html=1;pointerEvents=1;dashed=0;fillColor=#FF0000;strokeColor=#ffffff;strokeWidth=2;verticalLabelPosition=bottom;verticalAlign=top;align=center;outlineConnect=0;flipH=1;" parent="flix.network_segment.office.access" vertex="1">
    <mxGeometry x="30" y="120" width="20" height="60" as="geometry" />
  </mxCell>
</object><object label="&lt;font style=&quot;color: light-dark(rgb(0, 0, 0), rgb(237, 237, 237)); line-height: 140%; font-size: 9px; &quot;&gt;&amp;nbsp;NGFW 3&amp;nbsp;&lt;/font&gt;" id="flix.network.ngfw.03" title="NGFW 3" description="Пограничный NGFW Guest" realization_type="Физический" model="4800F" type="FIREWALL" segment_id="flix.network_segment.office.access" purpose="Пограничный NGFW подклюшения к интернет гостевой" address="192.168.8.23" network_connection="['flix.lan.office.inet_guest_edge', 'flix.lan.office.wifi.guest']" OID="flix.network.ngfw.03" schema="seaf.ta.components.network">
  <mxCell style="shape=mxgraph.cisco.security.firewall;html=1;pointerEvents=1;dashed=0;fillColor=#FF0000;strokeColor=#ffffff;strokeWidth=2;verticalLabelPosition=bottom;verticalAlign=top;align=center;outlineConnect=0;flipH=1;" parent="flix.network_segment.office.access" vertex="1">
    <mxGeometry x="30" y="210" width="20" height="60" as="geometry" />
  </mxCell>
</object><object label="&lt;font style=&quot;color: light-dark(rgb(0, 0, 0), rgb(237, 237, 237)); line-height: 140%; font-size: 9px; &quot;&gt;&amp;nbsp;CNTXT2-NGFW&amp;nbsp;&lt;/font&gt;" id="flix.network.ngfw.cntxt2" title="CNTXT2-NGFW" description="Контекст правил безопасности NGFW" realization_type="Виртуальный" model="FortiGate 4800F" type="FIREWALL" segment_id="flix.network_segment.office.access" purpose="Контекст NGFW" network_connection="['flix.lan.office.ext.lan', 'flix.lan.office.security']" OID="flix.network.ngfw.cntxt2" schema="seaf.ta.components.network">
  <mxCell style="shape=mxgraph.cisco.security.firewall;html=1;pointerEvents=1;dashed=0;fillColor=#FF0000;strokeColor=#ffffff;strokeWidth=2;verticalLabelPosition=bottom;verticalAlign=top;align=center;outlineConnect=0;flipH=1;" parent="flix.network_segment.office.access" vertex="1">
    <mxGeometry x="30" y="300" width="20" height="60" as="geometry" />
  </mxCell>
</object><object label="&lt;font style=&quot;color: light-dark(rgb(0, 0, 0), rgb(237, 237, 237)); line-height: 140%; font-size: 9px; &quot;&gt;&amp;nbsp;NGFW-IDFW&amp;nbsp;&lt;/font&gt;" id="flix.network.ngfw.idfw" title="NGFW-IDFW" description="Пограничный NGFW" realization_type="Физический" model="4800F" type="FIREWALL" segment_id="flix.network_segment.office.int" purpose="Пограничный NGFW транспортной сети" address="192.168.8.23" network_connection="['flix.lan.office.wan_edge', 'flix.lan.office.int.lan']" OID="flix.network.ngfw.idfw" schema="seaf.ta.components.network">
  <mxCell style="shape=mxgraph.cisco.security.firewall;html=1;pointerEvents=1;dashed=0;fillColor=#FF0000;strokeColor=#ffffff;strokeWidth=2;verticalLabelPosition=bottom;verticalAlign=top;align=center;outlineConnect=0;flipH=1;" parent="flix.network_segment.office.int" vertex="1">
    <mxGeometry x="30" y="30" width="20" height="60" as="geometry" />
  </mxCell>
</object><object label="&lt;font style=&quot;color: light-dark(rgb(0, 0, 0), rgb(237, 237, 237)); line-height: 140%; font-size: 9px; &quot;&gt;&amp;nbsp;CNTXT1-NGFW&amp;nbsp;&lt;/font&gt;" id="flix.network.ngfw.cntxt1" title="CNTXT1-NGFW" description="Контекст правил безопасности NGFW" realization_type="Виртуальный" model="FortiGate 4800F" type="FIREWALL" segment_id="flix.network_segment.office.int" purpose="Контекст NGFW" network_connection="['flix.lan.office.ext.lan', 'flix.lan.office.int.lan']" OID="flix.network.ngfw.cntxt1" schema="seaf.ta.components.network">
  <mxCell style="shape=mxgraph.cisco.security.firewall;html=1;pointerEvents=1;dashed=0;fillColor=#FF0000;strokeColor=#ffffff;strokeWidth=2;verticalLabelPosition=bottom;verticalAlign=top;align=center;outlineConnect=0;flipH=1;" parent="flix.network_segment.office.int" vertex="1">
    <mxGeometry x="30" y="120" width="20" height="60" as="geometry" />
  </mxCell>
</object><object label="&lt;font style=&quot;color: light-dark(rgb(0, 0, 0), rgb(237, 237, 237)); line-height: 140%; font-size: 9px; &quot;&gt;&amp;nbsp;CNTXT3-NGFW&amp;nbsp;&lt;/font&gt;" id="flix.network.ngfw.cntxt3" title="CNTXT3-NGFW" description="Контекст правил безопасности NGFW" realization_type="Виртуальный" model="FortiGate 4800F" type="FIREWALL" segment_id="flix.network_segment.office.int" purpose="Контекст NGFW" network_connection="['flix.lan.office.int.lan', 'flix.lan.office.wifi.arm']" OID="flix.network.ngfw.cntxt3" schema="seaf.ta.components.network">
  <mxCell style="shape=mxgraph.cisco.security.firewall;html=1;pointerEvents=1;dashed=0;fillColor=#FF0000;strokeColor=#ffffff;strokeWidth=2;verticalLabelPosition=bottom;verticalAlign=top;align=center;outlineConnect=0;flipH=1;" parent="flix.network_segment.office.int" vertex="1">
    <mxGeometry x="30" y="210" width="20" height="60" as="geometry" />
  </mxCell>
</object><object label="&lt;font style=&quot;color: light-dark(rgb(0, 0, 0), rgb(237, 237, 237)); line-height: 140%; font-size: 9px; &quot;&gt;&amp;nbsp;CNTXT4-NGFW&amp;nbsp;&lt;/font&gt;" id="flix.network.ngfw.cntxt4" title="CNTXT4-NGFW" description="Контекст правил безопасности NGFW" realization_type="Виртуальный" model="FortiGate 4800F" type="FIREWALL" segment_id="flix.network_segment.office.int" purpose="Контекст NGFW" network_connection="['flix.lan.office.int.lan', 'flix.lan.office.wired.ARM']" OID="flix.network.ngfw.cntxt4" schema="seaf.ta.components.network">
  <mxCell style="shape=mxgraph.cisco.security.firewall;html=1;pointerEvents=1;dashed=0;fillColor=#FF0000;strokeColor=#ffffff;strokeWidth=2;verticalLabelPosition=bottom;verticalAlign=top;align=center;outlineConnect=0;flipH=1;" parent="flix.network_segment.office.int" vertex="1">
    <mxGeometry x="30" y="300" width="20" height="60" as="geometry" />
  </mxCell>
</object><object label="&lt;font style=&quot;color: light-dark(rgb(0, 0, 0), rgb(237, 237, 237)); line-height: 140%; font-size: 9px; &quot;&gt;&amp;nbsp;CNTXT5-NGFW&amp;nbsp;&lt;/font&gt;" id="flix.network.ngfw.cntxt5" title="CNTXT5-NGFW" description="Контекст правил безопасности NGFW" realization_type="Виртуальный" model="FortiGate 4800F" type="FIREWALL" segment_id="flix.network_segment.office.int" purpose="Контекст NGFW" network_connection="['flix.lan.office.int.lan', 'flix.lan.office.admin.ARM']" OID="flix.network.ngfw.cntxt5" schema="seaf.ta.components.network">
  <mxCell style="shape=mxgraph.cisco.security.firewall;html=1;pointerEvents=1;dashed=0;fillColor=#FF0000;strokeColor=#ffffff;strokeWidth=2;verticalLabelPosition=bottom;verticalAlign=top;align=center;outlineConnect=0;flipH=1;" parent="flix.network_segment.office.int" vertex="1">
    <mxGeometry x="30" y="390" width="20" height="60" as="geometry" />
  </mxCell>
</object><object label="&lt;font style=&quot;color: light-dark(rgb(0, 0, 0), rgb(237, 237, 237)); line-height: 140%; font-size: 9px; &quot;&gt;&amp;nbsp;CNTXT6-NGFW&amp;nbsp;&lt;/font&gt;" id="flix.network.ngfw.cntxt6" title="CNTXT6-NGFW" description="Контекст правил безопасности NGFW" realization_type="Виртуальный" model="FortiGate 4800F" type="FIREWALL" segment_id="flix.network_segment.office.int" purpose="Контекст NGFW" network_connection="['flix.lan.office.int.lan', 'flix.lan.office.printers']" OID="flix.network.ngfw.cntxt6" schema="seaf.ta.components.network">
  <mxCell style="shape=mxgraph.cisco.security.firewall;html=1;pointerEvents=1;dashed=0;fillColor=#FF0000;strokeColor=#ffffff;strokeWidth=2;verticalLabelPosition=bottom;verticalAlign=top;align=center;outlineConnect=0;flipH=1;" parent="flix.network_segment.office.int" vertex="1">
    <mxGeometry x="30" y="480" width="20" height="60" as="geometry" />
  </mxCell>
</object><object label="&lt;font style=&quot;color: light-dark(rgb(0, 0, 0), rgb(237, 237, 237)); line-height: 140%; font-size: 9px; &quot;&gt;&amp;nbsp;CNTXT7-NGFW&amp;nbsp;&lt;/font&gt;" id="flix.network.ngfw.cntxt7" title="CNTXT7-NGFW" description="Контекст правил безопасности NGFW" realization_type="Виртуальный" model="FortiGate 4800F" type="FIREWALL" segment_id="flix.network_segment.office.int" purpose="Контекст NGFW" network_connection="['flix.lan.office.int.lan', 'flix.lan.office.ipphones']" OID="flix.network.ngfw.cntxt7" schema="seaf.ta.components.network">
  <mxCell style="shape=mxgraph.cisco.security.firewall;html=1;pointerEvents=1;dashed=0;fillColor=#FF0000;strokeColor=#ffffff;strokeWidth=2;verticalLabelPosition=bottom;verticalAlign=top;align=center;outlineConnect=0;flipH=1;" parent="flix.network_segment.office.int" vertex="1">
    <mxGeometry x="30" y="570" width="20" height="60" as="geometry" />
  </mxCell>
</object><object label="&lt;font style=&quot;color: light-dark(rgb(0, 0, 0), rgb(237, 237, 237)); line-height: 140%; font-size: 9px; &quot;&gt;&amp;nbsp;CNTXT8-NGFW&amp;nbsp;&lt;/font&gt;" id="flix.network.ngfw.cntxt8" title="CNTXT8-NGFW" description="Контекст правил безопасности NGFW" realization_type="Виртуальный" model="FortiGate 4800F" type="FIREWALL" segment_id="flix.network_segment.office.int" purpose="Контекст NGFW" network_connection="['flix.lan.office.int.lan', 'flix.lan.office.mgmt']" OID="flix.network.ngfw.cntxt8" schema="seaf.ta.components.network">
  <mxCell style="shape=mxgraph.cisco.security.firewall;html=1;pointerEvents=1;dashed=0;fillColor=#FF0000;strokeColor=#ffffff;strokeWidth=2;verticalLabelPosition=bottom;verticalAlign=top;align=center;outlineConnect=0;flipH=1;" parent="flix.network_segment.office.int" vertex="1">
    <mxGeometry x="30" y="660" width="20" height="60" as="geometry" />
  </mxCell>
</object><object id="cb28a3480363b328ce77add0e3f291e6" label="" source="flix.network.guest.router" target="flix.wan.office.isp.guest">
    <mxCell style="endArrow=none;edgeStyle=orthogonalEdgeStyle;rounded=0;curved=0;strokeColor=#FF0000;" edge="1" parent="100" source="flix.network.guest.router" target="flix.wan.office.isp.guest">
        <mxGeometry relative="1" as="geometry" />
    </mxCell>
</object><object id="eed5b64af363a2473418d15da3b92b44" label="" source="flix.network.guest.router" target="flix.lan.office.inet_guest_edge">
    <mxCell style="endArrow=none;edgeStyle=orthogonalEdgeStyle;rounded=0;curved=0;strokeColor=#FF0000;" edge="1" parent="100" source="flix.network.guest.router" target="flix.lan.office.inet_guest_edge">
        <mxGeometry relative="1" as="geometry" />
    </mxCell>
</object><object id="ff01b18f8eef3d856c2a80f4f620bf4a" label="" source="flix.network.router.01" target="flix.wan.office.isp.01">
    <mxCell style="endArrow=none;edgeStyle=orthogonalEdgeStyle;rounded=0;curved=0;strokeColor=#FF0000;" edge="1" parent="100" source="flix.network.router.01" target="flix.wan.office.isp.01">
        <mxGeometry relative="1" as="geometry" />
    </mxCell>
</object><object id="32611197679fbed38ce3fa6dee169abf" label="" source="flix.network.router.01" target="flix.lan.office.inet_edge">
    <mxCell style="endArrow=none;edgeStyle=orthogonalEdgeStyle;rounded=0;curved=0;strokeColor=#FF0000;" edge="1" parent="100" source="flix.network.router.01" target="flix.lan.office.inet_edge">
        <mxGeometry relative="1" as="geometry" />
    </mxCell>
</object><object id="977cef71044fb5c12663a29f32317322" label="" source="flix.network.router.01" target="flix.network.router.02">
    <mxCell style="endArrow=none;edgeStyle=orthogonalEdgeStyle;rounded=0;curved=0;strokeColor=#FF0000;" edge="1" parent="100" source="flix.network.router.01" target="flix.network.router.02">
        <mxGeometry relative="1" as="geometry" />
    </mxCell>
</object><object id="7a7e3cd4aa20384267b3e51e48eff3b6" label="" source="flix.network.router.02" target="flix.wan.office.isp.02">
    <mxCell style="endArrow=none;edgeStyle=orthogonalEdgeStyle;rounded=0;curved=0;strokeColor=#FF0000;" edge="1" parent="100" source="flix.network.router.02" target="flix.wan.office.isp.02">
        <mxGeometry relative="1" as="geometry" />
    </mxCell>
</object><object id="d2959adc57203f55c9ca4f7e38f8a4b4" label="" source="flix.network.router.02" target="flix.lan.office.inet_edge">
    <mxCell style="endArrow=none;edgeStyle=orthogonalEdgeStyle;rounded=0;curved=0;strokeColor=#FF0000;" edge="1" parent="100" source="flix.network.router.02" target="flix.lan.office.inet_edge">
        <mxGeometry relative="1" as="geometry" />
    </mxCell>
</object><object id="7c701264836d523cbd113921a3e3a355" label="" source="flix.network.router.03" target="flix.wan.office.sp.01">
    <mxCell style="endArrow=none;edgeStyle=orthogonalEdgeStyle;rounded=0;curved=0;strokeColor=#FF0000;" edge="1" parent="100" source="flix.network.router.03" target="flix.wan.office.sp.01">
        <mxGeometry relative="1" as="geometry" />
    </mxCell>
</object><object id="ac8bc685a12316c0e6e7c90d745b6ecc" label="" source="flix.network.router.03" target="flix.lan.office.wan_edge">
    <mxCell style="endArrow=none;edgeStyle=orthogonalEdgeStyle;rounded=0;curved=0;strokeColor=#FF0000;" edge="1" parent="100" source="flix.network.router.03" target="flix.lan.office.wan_edge">
        <mxGeometry relative="1" as="geometry" />
    </mxCell>
</object><object id="6a3195693d632329898e9a480b33c9c6" label="" source="flix.network.router.03" target="flix.network.router.04">
    <mxCell style="endArrow=none;edgeStyle=orthogonalEdgeStyle;rounded=0;curved=0;strokeColor=#FF0000;" edge="1" parent="100" source="flix.network.router.03" target="flix.network.router.04">
        <mxGeometry relative="1" as="geometry" />
    </mxCell>
</object><object id="99c9e2e68ba1190fa6a6950ff0a28485" label="" source="flix.network.router.04" target="flix.wan.office.sp.02">
    <mxCell style="endArrow=none;edgeStyle=orthogonalEdgeStyle;rounded=0;curved=0;strokeColor=#FF0000;" edge="1" parent="100" source="flix.network.router.04" target="flix.wan.office.sp.02">
        <mxGeometry relative="1" as="geometry" />
    </mxCell>
</object><object id="7a7b3748f4ad170a4c92795e026f0a8a" label="" source="flix.network.router.04" target="flix.lan.office.wan_edge">
    <mxCell style="endArrow=none;edgeStyle=orthogonalEdgeStyle;rounded=0;curved=0;strokeColor=#FF0000;" edge="1" parent="100" source="flix.network.router.04" target="flix.lan.office.wan_edge">
        <mxGeometry relative="1" as="geometry" />
    </mxCell>
</object><object id="f0363dd9b123795b2ffbf2d8cf558d2c" label="" source="flix.network.wificontroller.guest" target="flix.lan.office.wifi.guest">
    <mxCell style="endArrow=none;edgeStyle=orthogonalEdgeStyle;rounded=0;curved=0;strokeColor=#0000FF;" edge="1" parent="100" source="flix.network.wificontroller.guest" target="flix.lan.office.wifi.guest">
        <mxGeometry relative="1" as="geometry" />
    </mxCell>
</object><object id="d177ef59aead13980d924d166eb6d99f" label="" source="flix.network.wificontroller.arm" target="flix.lan.office.wifi.arm">
    <mxCell style="endArrow=none;edgeStyle=orthogonalEdgeStyle;rounded=0;curved=0;strokeColor=#0000FF;" edge="1" parent="100" source="flix.network.wificontroller.arm" target="flix.lan.office.wifi.arm">
        <mxGeometry relative="1" as="geometry" />
    </mxCell>
</object><object id="ea48eabb4088c81813ab5378e9f3f30e" label="" source="flix.network.ngfw.01" target="flix.lan.office.inet_edge">
    <mxCell style="endArrow=none;edgeStyle=orthogonalEdgeStyle;rounded=0;curved=0;strokeColor=#0000FF;" edge="1" parent="100" source="flix.network.ngfw.01" target="flix.lan.office.inet_edge">
        <mxGeometry relative="1" as="geometry" />
    </mxCell>
</object><object id="a41d3a43753fcaaa220fb6d73742be34" label="" source="flix.network.ngfw.01" target="flix.lan.office.ext.lan">
    <mxCell style="endArrow=none;edgeStyle=orthogonalEdgeStyle;rounded=0;curved=0;strokeColor=#0000FF;" edge="1" parent="100" source="flix.network.ngfw.01" target="flix.lan.office.ext.lan">
        <mxGeometry relative="1" as="geometry" />
    </mxCell>
</object><object id="88fec65f890021f653019552ba9d3a73" label="" source="flix.network.ngfw.01" target="flix.network.ngfw.02">
    <mxCell style="endArrow=none;edgeStyle=orthogonalEdgeStyle;rounded=0;curved=0;strokeColor=#0000FF;" edge="1" parent="100" source="flix.network.ngfw.01" target="flix.network.ngfw.02">
        <mxGeometry relative="1" as="geometry" />
    </mxCell>
</object><object id="df7c2ef3539d2b91f523e44d40181d04" label="" source="flix.network.ngfw.02" target="flix.lan.office.inet_edge">
    <mxCell style="endArrow=none;edgeStyle=orthogonalEdgeStyle;rounded=0;curved=0;strokeColor=#0000FF;" edge="1" parent="100" source="flix.network.ngfw.02" target="flix.lan.office.inet_edge">
        <mxGeometry relative="1" as="geometry" />
    </mxCell>
</object><object id="99bce0932b3a5c74091665ecfe0e5012" label="" source="flix.network.ngfw.02" target="flix.lan.office.ext.lan">
    <mxCell style="endArrow=none;edgeStyle=orthogonalEdgeStyle;rounded=0;curved=0;strokeColor=#0000FF;" edge="1" parent="100" source="flix.network.ngfw.02" target="flix.lan.office.ext.lan">
        <mxGeometry relative="1" as="geometry" />
    </mxCell>
</object><object id="50306816e1021acfba8a71419bfd7488" label="" source="flix.network.ngfw.03" target="flix.lan.office.inet_guest_edge">
    <mxCell style="endArrow=none;edgeStyle=orthogonalEdgeStyle;rounded=0;curved=0;strokeColor=#0000FF;" edge="1" parent="100" source="flix.network.ngfw.03" target="flix.lan.office.inet_guest_edge">
        <mxGeometry relative="1" as="geometry" />
    </mxCell>
</object><object id="dec794179b1c11d5b84d3ee4db6cdfb8" label="" source="flix.network.ngfw.03" target="flix.lan.office.wifi.guest">
    <mxCell style="endArrow=none;edgeStyle=orthogonalEdgeStyle;rounded=0;curved=0;strokeColor=#0000FF;" edge="1" parent="100" source="flix.network.ngfw.03" target="flix.lan.office.wifi.guest">
        <mxGeometry relative="1" as="geometry" />
    </mxCell>
</object><object id="973f0c9dddb8a85a21915972c0357e74" label="" source="flix.network.ngfw.idfw" target="flix.lan.office.wan_edge">
    <mxCell style="endArrow=none;edgeStyle=orthogonalEdgeStyle;rounded=0;curved=0;strokeColor=#0000FF;" edge="1" parent="100" source="flix.network.ngfw.idfw" target="flix.lan.office.wan_edge">
        <mxGeometry relative="1" as="geometry" />
    </mxCell>
</object><object id="89c184d91b587ea3370d26ef205ce3c6" label="" source="flix.network.ngfw.idfw" target="flix.lan.office.int.lan">
    <mxCell style="endArrow=none;edgeStyle=orthogonalEdgeStyle;rounded=0;curved=0;strokeColor=#0000FF;" edge="1" parent="100" source="flix.network.ngfw.idfw" target="flix.lan.office.int.lan">
        <mxGeometry relative="1" as="geometry" />
    </mxCell>
</object><object id="4f31cfb63c25533503af8f57b076b177" label="" source="flix.network.ngfw.cntxt1" target="flix.lan.office.ext.lan">
    <mxCell style="endArrow=none;edgeStyle=orthogonalEdgeStyle;rounded=0;curved=0;strokeColor=#0000FF;" edge="1" parent="100" source="flix.network.ngfw.cntxt1" target="flix.lan.office.ext.lan">
        <mxGeometry relative="1" as="geometry" />
    </mxCell>
</object><object id="1fb980f3d704725a16dbff40ba84a96a" label="" source="flix.network.ngfw.cntxt1" target="flix.lan.office.int.lan">
    <mxCell style="endArrow=none;edgeStyle=orthogonalEdgeStyle;rounded=0;curved=0;strokeColor=#0000FF;" edge="1" parent="100" source="flix.network.ngfw.cntxt1" target="flix.lan.office.int.lan">
        <mxGeometry relative="1" as="geometry" />
    </mxCell>
</object><object id="78d1b078f7d7943679ce4861506fbcf7" label="" source="flix.network.ngfw.cntxt2" target="flix.lan.office.ext.lan">
    <mxCell style="endArrow=none;edgeStyle=orthogonalEdgeStyle;rounded=0;curved=0;strokeColor=#0000FF;" edge="1" parent="100" source="flix.network.ngfw.cntxt2" target="flix.lan.office.ext.lan">
        <mxGeometry relative="1" as="geometry" />
    </mxCell>
</object><object id="7c2fa682feac98908f8ce6edc6e995e5" label="" source="flix.network.ngfw.cntxt2" target="flix.lan.office.security">
    <mxCell style="endArrow=none;edgeStyle=orthogonalEdgeStyle;rounded=0;curved=0;strokeColor=#0000FF;" edge="1" parent="100" source="flix.network.ngfw.cntxt2" target="flix.lan.office.security">
        <mxGeometry relative="1" as="geometry" />
    </mxCell>
</object><object id="22f5022221cc90a59b0fefdaa30d5d48" label="" source="flix.network.ngfw.cntxt3" target="flix.lan.office.int.lan">
    <mxCell style="endArrow=none;edgeStyle=orthogonalEdgeStyle;rounded=0;curved=0;strokeColor=#0000FF;" edge="1" parent="100" source="flix.network.ngfw.cntxt3" target="flix.lan.office.int.lan">
        <mxGeometry relative="1" as="geometry" />
    </mxCell>
</object><object id="f3bde9bb65448a3397fa4e590f28c533" label="" source="flix.network.ngfw.cntxt3" target="flix.lan.office.wifi.arm">
    <mxCell style="endArrow=none;edgeStyle=orthogonalEdgeStyle;rounded=0;curved=0;strokeColor=#0000FF;" edge="1" parent="100" source="flix.network.ngfw.cntxt3" target="flix.lan.office.wifi.arm">
        <mxGeometry relative="1" as="geometry" />
    </mxCell>
</object><object id="ac1a3df018e36326caf7ec5654a8a60f" label="" source="flix.network.ngfw.cntxt4" target="flix.lan.office.int.lan">
    <mxCell style="endArrow=none;edgeStyle=orthogonalEdgeStyle;rounded=0;curved=0;strokeColor=#0000FF;" edge="1" parent="100" source="flix.network.ngfw.cntxt4" target="flix.lan.office.int.lan">
        <mxGeometry relative="1" as="geometry" />
    </mxCell>
</object><object id="3b3cca25da08338d8b313bb676427603" label="" source="flix.network.ngfw.cntxt4" target="flix.lan.office.wired.ARM">
    <mxCell style="endArrow=none;edgeStyle=orthogonalEdgeStyle;rounded=0;curved=0;strokeColor=#0000FF;" edge="1" parent="100" source="flix.network.ngfw.cntxt4" target="flix.lan.office.wired.ARM">
        <mxGeometry relative="1" as="geometry" />
    </mxCell>
</object><object id="4685803d32541b57f8739bf4fbbb71e9" label="" source="flix.network.ngfw.cntxt5" target="flix.lan.office.int.lan">
    <mxCell style="endArrow=none;edgeStyle=orthogonalEdgeStyle;rounded=0;curved=0;strokeColor=#0000FF;" edge="1" parent="100" source="flix.network.ngfw.cntxt5" target="flix.lan.office.int.lan">
        <mxGeometry relative="1" as="geometry" />
    </mxCell>
</object><object id="918a4b3abb862f56981e596b769af7e2" label="" source="flix.network.ngfw.cntxt5" target="flix.lan.office.admin.ARM">
    <mxCell style="endArrow=none;edgeStyle=orthogonalEdgeStyle;rounded=0;curved=0;strokeColor=#0000FF;" edge="1" parent="100" source="flix.network.ngfw.cntxt5" target="flix.lan.office.admin.ARM">
        <mxGeometry relative="1" as="geometry" />
    </mxCell>
</object><object id="6e43a0744ffe942f385605e8767b508a" label="" source="flix.network.ngfw.cntxt6" target="flix.lan.office.int.lan">
    <mxCell style="endArrow=none;edgeStyle=orthogonalEdgeStyle;rounded=0;curved=0;strokeColor=#0000FF;" edge="1" parent="100" source="flix.network.ngfw.cntxt6" target="flix.lan.office.int.lan">
        <mxGeometry relative="1" as="geometry" />
    </mxCell>
</object><object id="86554cbd74110c20038ddeb7d6b1c961" label="" source="flix.network.ngfw.cntxt6" target="flix.lan.office.printers">
    <mxCell style="endArrow=none;edgeStyle=orthogonalEdgeStyle;rounded=0;curved=0;strokeColor=#0000FF;" edge="1" parent="100" source="flix.network.ngfw.cntxt6" target="flix.lan.office.printers">
        <mxGeometry relative="1" as="geometry" />
    </mxCell>
</object><object id="729aa79f25c3c4c3006ba73b8a4bfdd8" label="" source="flix.network.ngfw.cntxt7" target="flix.lan.office.int.lan">
    <mxCell style="endArrow=none;edgeStyle=orthogonalEdgeStyle;rounded=0;curved=0;strokeColor=#0000FF;" edge="1" parent="100" source="flix.network.ngfw.cntxt7" target="flix.lan.office.int.lan">
        <mxGeometry relative="1" as="geometry" />
    </mxCell>
</object><object id="fa6fb23a7099ed59ddde0c232decb7cb" label="" source="flix.network.ngfw.cntxt7" target="flix.lan.office.ipphones">
    <mxCell style="endArrow=none;edgeStyle=orthogonalEdgeStyle;rounded=0;curved=0;strokeColor=#0000FF;" edge="1" parent="100" source="flix.network.ngfw.cntxt7" target="flix.lan.office.ipphones">
        <mxGeometry relative="1" as="geometry" />
    </mxCell>
</object><object id="69af71e161d16dafac999d0ecc2134a1" label="" source="flix.network.ngfw.cntxt8" target="flix.lan.office.int.lan">
    <mxCell style="endArrow=none;edgeStyle=orthogonalEdgeStyle;rounded=0;curved=0;strokeColor=#0000FF;" edge="1" parent="100" source="flix.network.ngfw.cntxt8" target="flix.lan.office.int.lan">
        <mxGeometry relative="1" as="geometry" />
    </mxCell>
</object><object id="d88ec153bdfb9c7411c16c0e9044da3d" label="" source="flix.network.ngfw.cntxt8" target="flix.lan.office.mgmt">
    <mxCell style="endArrow=none;edgeStyle=orthogonalEdgeStyle;rounded=0;curved=0;strokeColor=#0000FF;" edge="1" parent="100" source="flix.network.ngfw.cntxt8" target="flix.lan.office.mgmt">
        <mxGeometry relative="1" as="geometry" />
    </mxCell>
</object></root>
  </mxGraphModel>
</diagram><diagram id="flix.dc.01_page" name="Sber Cloud DC">
  <mxGraphModel dx="1360" dy="864" grid="1" gridSize="10" guides="1" tooltips="1" connect="1" arrows="1" fold="1" page="1" pageScale="1" pageWidth="827" pageHeight="1169" math="0" shadow="1">
    <root>
      <mxCell id="0" />   
      <mxCell id="1" parent="0" />
      <mxCell id="01" value="Links" style="group;fontColor=none;noLabel=1;" parent="0" />
      <mxCell id="001" value="DC" style="group;strokeColor=default;rounded=0;strokeWidth=1;perimeterSpacing=1;fontColor=none;noLabel=1;" parent="0" vertex="1">
        <mxGeometry x="615" y="60" width="1821" height="1400" as="geometry" />            
      </mxCell>
      <mxCell value="External Net" id="002" style="group;fontColor=none;noLabel=1;" parent="0" vertex="1">
          <mxGeometry x="20" y="60" width="200" height="1400" as="geometry" />
      </mxCell>
      <mxCell id="003" value="INTERNET" style="group;fontColor=none;noLabel=1;" parent="0" vertex="1">
          <mxGeometry x="240" y="60" width="160" height="1400" as="geometry" />
      </mxCell>
      <mxCell id="004" value="WAN" style="group;fontColor=none;noLabel=1;" parent="0" vertex="1">
          <mxGeometry x="420" y="60" width="160" height="1400" as="geometry" />
      </mxCell>
      <mxCell id="100" value="Links" style="group;fontColor=none;noLabel=1;" parent="0" />
    <object label="&lt;div style=&quot;font-size: 1px&quot;&gt;&lt;font style=&quot;font-size:16.93px;font-family:Calibri;color:#000000;direction:ltr;letter-spacing:0px;line-height:120%;opacity:1&quot;&gt;&lt;b&gt;Sber Cloud DC&lt;br/&gt;&lt;/b&gt;&lt;/font&gt;&lt;font style=&quot;font-size:11.29px;font-family:Calibri;color:#000000;direction:ltr;letter-spacing:0px;line-height:120%;opacity:1&quot;&gt;Sber Cloud Advanced&lt;br/&gt;&lt;/font&gt;&lt;font style=&quot;font-size:8.47px;font-family:Calibri;color:#000000;direction:ltr;letter-spacing:0px;line-height:120%;opacity:1&quot;&gt;&lt;b&gt; &lt;/b&gt;&lt;/font&gt;&lt;font style=&quot;font-size:16.93px;font-family:Calibri;color:#000000;direction:ltr;letter-spacing:0px;line-height:120%;opacity:1&quot;&gt;&lt;b&gt;&lt;br/&gt;&lt;/b&gt;&lt;/font&gt;&lt;/div&gt;" id="flix.dc.01" title="Sber Cloud DC" description="Sber Cloud Advanced" dc_vendor="Sber" dc_type="Основной" dc_address="Огородный проезд" dc_rack_qty="5" dc_tier="3" dc_ownership="Аренда" availabilityzone_id="flix.dc_az.moscow" OID="flix.dc.01" schema="seaf.ta.services.dc">
  <mxCell style="verticalAlign=middle;align=center;vsdxID=13090;fillColor=#ffffff;gradientColor=none;shape=stencil(vZTbDsIgDIafhssRBObh2sN7EGUbEcfSoc63l6VbdLiZmJjd9fBB+ZtSIrZ1oSpNOKs9uLO+m5MviNgRzk1ZaDA+WETsidhmDnQO7lqe0K9US7bWxd3aGxo8t2DtEc4evYv+AVlryjd28zdWwTHkoGfpZok0dLiUlEsMNcML+gvTlKarjkhUY+oEnFfeuBLzHW0V5DoJ5ZLMqnyQqu9aVx/hUTFx8fA8Kb7pWctIj6ArPtAT9YfNJWW07oTof5C/d2aq1TM0Z2rERrUsGGXpx9gu47Ed/QazzOy3DxiM10bIjLW4UN7z8QYJIdw+Yv8E);strokeColor=#000000;strokeWidth=0;labelBackgroundColor=none;rounded=0;html=1;whiteSpace=wrap;" vertex="1" parent="001">
    <mxGeometry x="-130" y="-20" width="265" height="59" as="geometry" />
  </mxCell>
</object><object label="DMZ_1" id="flix.network_segment.dc.ntwrk.01" title="DMZ_1" sber="{'zone': 'DMZ', 'location': 'flix.dc.01'}" OID="flix.network_segment.dc.ntwrk.01" schema="seaf.ta.services.network_segment">
    <mxCell style="rounded=0;whiteSpace=wrap;html=1;fontFamily=Helvetica;fontSize=12;fontColor=#000000;fillColor=#DDD7E6;verticalAlign=top;fontStyle=1;strokeColor=none;" parent="001" vertex="1">
      <mxGeometry x="195" y="0" width="440" height="1238" as="geometry" />
    </mxCell>
</object><object label="INT WAN-EDGE" id="flix.network_segment.dc.ntwrk.02" title="INT WAN-EDGE" sber="{'zone': 'INT-WAN-EDGE', 'location': 'flix.dc.01'}" OID="flix.network_segment.dc.ntwrk.02" schema="seaf.ta.services.network_segment">
    <mxCell style="rounded=0;whiteSpace=wrap;html=1;fontFamily=Helvetica;fontSize=12;fontColor=#FFFFFF;fillColor=#BFBFBF;verticalAlign=top;strokeColor=none;" vertex="1" parent="001">
      <mxGeometry x="195" y="1238" width="440" height="161" as="geometry" />
    </mxCell>
</object><object label="Внутренняя сеть ЦОД" id="flix.network_segment.dc.ntwrk.03" title="Внутренняя сеть ЦОД" sber="{'zone': 'INT-NET', 'location': 'flix.dc.01'}" OID="flix.network_segment.dc.ntwrk.03" schema="seaf.ta.services.network_segment">
  <mxCell style="rounded=0;whiteSpace=wrap;html=1;fontFamily=Helvetica;fontSize=12;fontColor=#000000;fillColor=#FFCE9F;fontStyle=1;verticalAlign=top;strokeColor=none;" vertex="1" parent="001">
      <mxGeometry x="635" y="0" width="750" height="1400" as="geometry" />
  </mxCell>
</object><object label="Защищенный сегмент&lt;br&gt;данных" id="flix.network_segment.dc.ntwrk.04" title="Защищенный сегмент&amp;lt;br&amp;gt;данных" sber="{'zone': 'INT-SECURITY-NET', 'location': 'flix.dc.01'}" OID="flix.network_segment.dc.ntwrk.04" schema="seaf.ta.services.network_segment">
  <mxCell style="rounded=0;whiteSpace=wrap;html=1;fontFamily=Helvetica;fontSize=12;fontColor=#000000;fillColor=#B7DEE8;fontStyle=1;verticalAlign=top;strokeColor=none;" vertex="1" parent="001">
    <mxGeometry x="1385" y="0" width="436" height="1400" as="geometry" />
  </mxCell>
</object><object label="INET-EDGE" id="flix.network_segment.dc.ntwrk.05" title="INET-EDGE" sber="{'zone': 'INET-EDGE', 'location': 'flix.dc.01'}" OID="flix.network_segment.dc.ntwrk.05" schema="seaf.ta.services.network_segment">
    <mxCell style="rounded=0;whiteSpace=wrap;html=1;fontFamily=Helvetica;fontSize=12;fillColor=#BFBFBF;horizontal=1;labelPosition=center;verticalLabelPosition=middle;align=center;verticalAlign=top;fontColor=#FFFFFF;fontStyle=1;strokeColor=none;" vertex="1" parent="001">
        <mxGeometry x="0" y="210" width="195" height="297" as="geometry" />
    </mxCell>
</object><object label="EXT WAN-EDGE" id="flix.network_segment.dc.ntwrk.06" title="EXT WAN-EDGE" sber="{'zone': 'EXT-WAN-EDGE', 'location': 'flix.dc.01'}" OID="flix.network_segment.dc.ntwrk.06" schema="seaf.ta.services.network_segment">
  <mxCell style="rounded=0;whiteSpace=wrap;html=1;fontFamily=Helvetica;fontSize=12;fillColor=#BFBFBF;verticalAlign=top;fontColor=#FFFFFF;fontStyle=1;strokeColor=none;" vertex="1" parent="001">
      <mxGeometry x="0" y="650" width="195" height="297" as="geometry" />
  </mxCell>
</object><object label="Internet" id="flix.network_segment.dc.internet" title="Internet" sber="{'zone': 'INTERNET', 'location': 'flix.dc.01'}" OID="flix.network_segment.dc.internet" schema="seaf.ta.services.network_segment">
  <mxCell style="verticalAlign=middle;align=center;vsdxID=5629;rotation=270;fillColor=#FDEBDD;gradientColor=none;shape=stencil(nZBLDsIwEENPM1sUMoILlHIBThCRQEaEpErD9/SkNUhVFyy6G9vPGsnETe9N50irvuR0cQ+xxRPvSGuJ3mUp9SJuiZtTyu6c0y1a6M5UUqvRcRad9UBrZfLxIG8Hb7viDWz0ruk+/HsiVYhe376C3gMNEifoL1wE/0EXgrP39RgXwVYSAgad5vMFq4X1uf0A);strokeColor=#9c4a09;spacingTop=-2;spacingBottom=-2;spacingLeft=-2;spacingRight=-2;labelBackgroundColor=none;rounded=1;html=1;whiteSpace=wrap;" parent="003" vertex="1">
    <mxGeometry x="-660" y="690" width="1345" height="27" as="geometry" />
  </mxCell>
</object><object label="Транспортная сеть" id="flix.network_segment_dc.transport" title="Транспортная сеть" sber="{'zone': 'TRANSPORT-WAN', 'location': 'flix.dc.01'}" OID="flix.network_segment_dc.transport" schema="seaf.ta.services.network_segment">
  <mxCell style="verticalAlign=middle;align=center;vsdxID=5629;rotation=270;fillColor=#ffcc66;gradientColor=none;shape=stencil(nZBLDsIwEENPM1sUMoILlHIBThCRQEaEpErD9/SkNUhVFyy6G9vPGsnETe9N50irvuR0cQ+xxRPvSGuJ3mUp9SJuiZtTyu6c0y1a6M5UUqvRcRad9UBrZfLxIG8Hb7viDWz0ruk+/HsiVYhe376C3gMNEifoL1wE/0EXgrP39RgXwVYSAgad5vMFq4X1uf0A);strokeColor=#6a5628;spacingTop=-2;spacingBottom=-2;spacingLeft=-2;spacingRight=-2;labelBackgroundColor=none;rounded=1;html=1;whiteSpace=wrap;" parent="004" vertex="1">
    <mxGeometry x="-660" y="690" width="1345" height="27" as="geometry" />
  </mxCell>
</object><mxCell id="flix.wan.dc.isp.01_0" value="" style="group;noLabel=1;" parent="flix.network_segment.dc.internet" vertex="1">
    <mxGeometry x="670" y="-600" width="110" height="60" as="geometry" />            
</mxCell><mxCell id="flix.wan.dc.isp.01_1" value="&lt;div style=&quot;font-size: 9px;&quot;&gt;&lt;font style=&quot;font-size: 9px; font-family: Calibri; color: rgb(255, 255, 255); direction: ltr; letter-spacing: 0px; line-height: 120%; opacity: 1;&quot;&gt;ISP&lt;br style=&quot;font-size: 9px;&quot;&gt;&lt;/font&gt;&lt;font style=&quot;font-size: 9px; font-family: Calibri; color: rgb(255, 255, 255); direction: ltr; letter-spacing: 0px; line-height: 120%; opacity: 1;&quot;&gt;ISP Guest&lt;/font&gt;&lt;font style=&quot;font-size: 9px; font-family: Calibri; color: rgb(255, 255, 255); direction: ltr; letter-spacing: 0px; line-height: 120%; opacity: 1;&quot;&gt;&lt;br style=&quot;font-size: 9px;&quot;&gt;&lt;/font&gt;&lt;/div&gt;" style="verticalAlign=middle;align=center;vsdxID=5657;fillColor=#612621;gradientColor=none;shape=stencil(nZBLDsIwEENPM1sUMoILlHIBThCRQEaEpErD9/SkNUhVFyy6G9vPGsnETe9N50irvuR0cQ+xxRPvSGuJ3mUp9SJuiZtTyu6c0y1a6M5UUqvRcRad9UBrZfLxIG8Hb7viDWz0ruk+/HsiVYhe376C3gMNEifoL1wE/0EXgrP39RgXwVYSAgad5vMFq4X1uf0A);strokeColor=#6a5628;spacingTop=-2;spacingBottom=-2;spacingLeft=-2;spacingRight=-2;labelBackgroundColor=none;rounded=1;html=1;whiteSpace=wrap;horizontal=1;fontSize=9;" vertex="1" parent="flix.wan.dc.isp.01_0">
    <mxGeometry x="0" y="5" width="66" height="40" as="geometry" />
</mxCell><object label="" id="flix.wan.dc.isp.01" title="ISP Guest" provider="Beeline" bandwidth="1000" wan_ip="10.20.11.0/24" description="Сеть ISP провайдера гостевой сети" type="WAN" segment="flix.network_segment.dc.internet" OID="flix.wan.dc.isp.01" schema="seaf.ta.services.network">
    <mxCell style="shape=mxgraph.cisco.routers.router;sketch=0;html=1;pointerEvents=1;dashed=0;fillColor=#036897;strokeColor=#ffffff;strokeWidth=2;verticalLabelPosition=bottom;verticalAlign=top;align=center;outlineConnect=0;labelBackgroundColor=default;fontSize=12;fontColor=#FFFFFF;" vertex="1" parent="flix.wan.dc.isp.01_0">
      <mxGeometry x="60" y="25" width="28" height="22" as="geometry" />
    </mxCell>
</object><mxCell id="flix.wan.dc.isp.01_3" value="&lt;div style=&quot;font-size: 1px&quot;&gt;&lt;p style=&quot;align:center;margin-left:0;margin-right:0;margin-top:0px;margin-bottom:0px;text-indent:0;valign:middle;direction:ltr;&quot;&gt;&lt;font style=&quot;font-size: 7.06px; font-family: Calibri; color: rgb(0, 0, 0); direction: ltr; letter-spacing: 0px; line-height: 100%; opacity: 1;&quot;&gt;&lt;b&gt;ISP Guest Router&lt;/b&gt;&lt;/font&gt;&lt;font style=&quot;font-size: 7.06px; font-family: Calibri; color: rgb(0, 0, 0); direction: ltr; letter-spacing: 0px; line-height: 100%; opacity: 1;&quot;&gt;&lt;br&gt;&lt;/font&gt;&lt;/p&gt;&lt;/div&gt;" style="verticalAlign=middle;align=center;vsdxID=12895;fillColor=#ffff00;gradientColor=none;fillOpacity=40;shape=stencil(nZBLDoAgDERP0z3SIyjew0SURgSD+Lu9kMZoXLhwN9O+tukAlrNpJg1SzDH4QW/URgNYgZTkjA4UkwJUgGXng+6DX1zLfmoymdXo17xh5zmRJ6Q42BWCfc2oJfdAr+Yv+AP9Cb7OJ3H/2JG1HNGz/84klThPVCc=);strokeColor=none;spacingTop=-3;spacingBottom=-3;spacingLeft=-3;spacingRight=-3;labelBackgroundColor=none;rounded=0;html=1;whiteSpace=wrap;" vertex="1" parent="flix.wan.dc.isp.01_0">
    <mxGeometry x="70" y="45" width="39" height="18" as="geometry" />
</mxCell><mxCell id="flix.wan.dc.isp.02_0" value="" style="group;noLabel=1;" parent="flix.network_segment_dc.transport" vertex="1">
    <mxGeometry x="670" y="-600" width="110" height="60" as="geometry" />            
</mxCell><mxCell id="flix.wan.dc.isp.02_1" value="&lt;div style=&quot;font-size: 9px;&quot;&gt;&lt;font style=&quot;font-size: 9px; font-family: Calibri; color: rgb(255, 255, 255); direction: ltr; letter-spacing: 0px; line-height: 120%; opacity: 1;&quot;&gt;ISP&lt;br style=&quot;font-size: 9px;&quot;&gt;&lt;/font&gt;&lt;font style=&quot;font-size: 9px; font-family: Calibri; color: rgb(255, 255, 255); direction: ltr; letter-spacing: 0px; line-height: 120%; opacity: 1;&quot;&gt;SP02&lt;/font&gt;&lt;font style=&quot;font-size: 9px; font-family: Calibri; color: rgb(255, 255, 255); direction: ltr; letter-spacing: 0px; line-height: 120%; opacity: 1;&quot;&gt;&lt;br style=&quot;font-size: 9px;&quot;&gt;&lt;/font&gt;&lt;/div&gt;" style="verticalAlign=middle;align=center;vsdxID=5657;fillColor=#612621;gradientColor=none;shape=stencil(nZBLDsIwEENPM1sUMoILlHIBThCRQEaEpErD9/SkNUhVFyy6G9vPGsnETe9N50irvuR0cQ+xxRPvSGuJ3mUp9SJuiZtTyu6c0y1a6M5UUqvRcRad9UBrZfLxIG8Hb7viDWz0ruk+/HsiVYhe376C3gMNEifoL1wE/0EXgrP39RgXwVYSAgad5vMFq4X1uf0A);strokeColor=#6a5628;spacingTop=-2;spacingBottom=-2;spacingLeft=-2;spacingRight=-2;labelBackgroundColor=none;rounded=1;html=1;whiteSpace=wrap;horizontal=1;fontSize=9;" vertex="1" parent="flix.wan.dc.isp.02_0">
    <mxGeometry x="0" y="5" width="66" height="40" as="geometry" />
</mxCell><object label="" id="flix.wan.dc.isp.02" title="SP02" provider="Ростелеком" bandwidth="10000" wan_ip="10.20.14.0/24" description="Сеть SP провайдера резервного транспортного канала" type="WAN" segment="flix.network_segment_dc.transport" OID="flix.wan.dc.isp.02" schema="seaf.ta.services.network">
    <mxCell style="shape=mxgraph.cisco.routers.router;sketch=0;html=1;pointerEvents=1;dashed=0;fillColor=#036897;strokeColor=#ffffff;strokeWidth=2;verticalLabelPosition=bottom;verticalAlign=top;align=center;outlineConnect=0;labelBackgroundColor=default;fontSize=12;fontColor=#FFFFFF;" vertex="1" parent="flix.wan.dc.isp.02_0">
      <mxGeometry x="60" y="25" width="28" height="22" as="geometry" />
    </mxCell>
</object><mxCell id="flix.wan.dc.isp.02_3" value="&lt;div style=&quot;font-size: 1px&quot;&gt;&lt;p style=&quot;align:center;margin-left:0;margin-right:0;margin-top:0px;margin-bottom:0px;text-indent:0;valign:middle;direction:ltr;&quot;&gt;&lt;font style=&quot;font-size: 7.06px; font-family: Calibri; color: rgb(0, 0, 0); direction: ltr; letter-spacing: 0px; line-height: 100%; opacity: 1;&quot;&gt;&lt;b&gt;SP02 Router&lt;/b&gt;&lt;/font&gt;&lt;font style=&quot;font-size: 7.06px; font-family: Calibri; color: rgb(0, 0, 0); direction: ltr; letter-spacing: 0px; line-height: 100%; opacity: 1;&quot;&gt;&lt;br&gt;&lt;/font&gt;&lt;/p&gt;&lt;/div&gt;" style="verticalAlign=middle;align=center;vsdxID=12895;fillColor=#ffff00;gradientColor=none;fillOpacity=40;shape=stencil(nZBLDoAgDERP0z3SIyjew0SURgSD+Lu9kMZoXLhwN9O+tukAlrNpJg1SzDH4QW/URgNYgZTkjA4UkwJUgGXng+6DX1zLfmoymdXo17xh5zmRJ6Q42BWCfc2oJfdAr+Yv+AP9Cb7OJ3H/2JG1HNGz/84klThPVCc=);strokeColor=none;spacingTop=-3;spacingBottom=-3;spacingLeft=-3;spacingRight=-3;labelBackgroundColor=none;rounded=0;html=1;whiteSpace=wrap;" vertex="1" parent="flix.wan.dc.isp.02_0">
    <mxGeometry x="70" y="45" width="39" height="18" as="geometry" />
</mxCell><object label="&lt;div style=&quot;font-size: 1px&quot;&gt;&lt;p style=&quot;align:center;margin-left:0;margin-right:0;margin-top:0px;margin-bottom:0px;text-indent:0;valign:middle;direction:ltr;&quot;&gt;&lt;font style=&quot;font-size:9.88px;font-family:Calibri;color:#000000;direction:ltr;letter-spacing:0px;line-height:90%;opacity:1&quot;&gt;&lt;b&gt;OF-EXT LAN&lt;/b&gt;&lt;/font&gt;&lt;font style=&quot;font-size:9.88px;font-family:Calibri;color:#000000;direction:ltr;letter-spacing:0px;line-height:90%;opacity:1&quot;&gt;  &lt;/font&gt;&lt;font style=&quot;font-size:8.47px;font-family:Calibri;color:#000000;direction:ltr;letter-spacing:0px;line-height:90%;opacity:1&quot;&gt;192.168.10.0/24&lt;/font&gt;&lt;font style=&quot;font-size:11.29px;font-family:Calibri;color:#000000;direction:ltr;letter-spacing:0px;line-height:90%;opacity:1&quot;&gt;&lt;b&gt;&lt;br/&gt;&lt;/b&gt;&lt;/font&gt;&lt;/p&gt;&lt;/div&gt;" id="flix.lan.dc.ext.lan" title="OF-EXT LAN" type="LAN" lan_type="Проводная" segment="flix.network_segment.dc.ntwrk.01" vlan="13" ipnetwork="192.168.10.0/24" description="Core сети УС офиса" OID="flix.lan.dc.ext.lan" schema="seaf.ta.services.network">
  <mxCell style="verticalAlign=middle;align=center;vsdxID=35397;rotation=270;fillColor=#c0cfe2;gradientColor=none;shape=stencil(nZFLDsIwDERP4y0KyQKxLuUCnCAihliEpEpL+ZyetANS6YJFs7JnXmxpTKZqvW2YtGq7nC58F9d5MjvSWqLnLF2pyNRkqlPKfM7pFh36xhZSq1Fhhz/rgdbK5uNBXgxts9r+PjAYck39sPwBVMF6foYp9HugQeIE/ZqL4D/oQnC2vhRjPAhOQkC6U38eZ5FwClO/AQ==);strokeColor=#000000;labelBackgroundColor=none;rounded=1;html=1;whiteSpace=wrap;" vertex="1" parent="flix.network_segment.dc.ntwrk.01">
    <mxGeometry x="-10" y="140" width="200" height="20" as="geometry" />
  </mxCell>
</object><object label="&lt;div style=&quot;font-size: 1px&quot;&gt;&lt;p style=&quot;align:center;margin-left:0;margin-right:0;margin-top:0px;margin-bottom:0px;text-indent:0;valign:middle;direction:ltr;&quot;&gt;&lt;font style=&quot;font-size:9.88px;font-family:Calibri;color:#000000;direction:ltr;letter-spacing:0px;line-height:90%;opacity:1&quot;&gt;&lt;b&gt;OF-WAN EDGE LAN&lt;/b&gt;&lt;/font&gt;&lt;font style=&quot;font-size:9.88px;font-family:Calibri;color:#000000;direction:ltr;letter-spacing:0px;line-height:90%;opacity:1&quot;&gt;  &lt;/font&gt;&lt;font style=&quot;font-size:8.47px;font-family:Calibri;color:#000000;direction:ltr;letter-spacing:0px;line-height:90%;opacity:1&quot;&gt;10.10.12.0/24&lt;/font&gt;&lt;font style=&quot;font-size:11.29px;font-family:Calibri;color:#000000;direction:ltr;letter-spacing:0px;line-height:90%;opacity:1&quot;&gt;&lt;b&gt;&lt;br/&gt;&lt;/b&gt;&lt;/font&gt;&lt;/p&gt;&lt;/div&gt;" id="flix.lan.dc.wan_edge" title="OF-WAN EDGE LAN" type="LAN" lan_type="Проводная" segment="flix.network_segment.dc.ntwrk.02" vlan="12" ipnetwork="10.10.12.0/24" description="Сеть модуля транспортной сети" OID="flix.lan.dc.wan_edge" schema="seaf.ta.services.network">
  <mxCell style="verticalAlign=middle;align=center;vsdxID=35397;rotation=270;fillColor=#c0cfe2;gradientColor=none;shape=stencil(nZFLDsIwDERP4y0KyQKxLuUCnCAihliEpEpL+ZyetANS6YJFs7JnXmxpTKZqvW2YtGq7nC58F9d5MjvSWqLnLF2pyNRkqlPKfM7pFh36xhZSq1Fhhz/rgdbK5uNBXgxts9r+PjAYck39sPwBVMF6foYp9HugQeIE/ZqL4D/oQnC2vhRjPAhOQkC6U38eZ5FwClO/AQ==);strokeColor=#000000;labelBackgroundColor=none;rounded=1;html=1;whiteSpace=wrap;" vertex="1" parent="flix.network_segment.dc.ntwrk.02">
    <mxGeometry x="-10" y="140" width="200" height="20" as="geometry" />
  </mxCell>
</object><object label="&lt;div style=&quot;font-size: 1px&quot;&gt;&lt;p style=&quot;align:center;margin-left:0;margin-right:0;margin-top:0px;margin-bottom:0px;text-indent:0;valign:middle;direction:ltr;&quot;&gt;&lt;font style=&quot;font-size:9.88px;font-family:Calibri;color:#000000;direction:ltr;letter-spacing:0px;line-height:90%;opacity:1&quot;&gt;&lt;b&gt;OF-Guest Internet EDGE LAN&lt;/b&gt;&lt;/font&gt;&lt;font style=&quot;font-size:9.88px;font-family:Calibri;color:#000000;direction:ltr;letter-spacing:0px;line-height:90%;opacity:1&quot;&gt;  &lt;/font&gt;&lt;font style=&quot;font-size:8.47px;font-family:Calibri;color:#000000;direction:ltr;letter-spacing:0px;line-height:90%;opacity:1&quot;&gt;10.10.10.0/24&lt;/font&gt;&lt;font style=&quot;font-size:11.29px;font-family:Calibri;color:#000000;direction:ltr;letter-spacing:0px;line-height:90%;opacity:1&quot;&gt;&lt;b&gt;&lt;br/&gt;&lt;/b&gt;&lt;/font&gt;&lt;/p&gt;&lt;/div&gt;" id="flix.lan.dc.inet_guest_edge" title="OF-Guest Internet EDGE LAN" type="LAN" lan_type="Проводная" segment="flix.network_segment.dc.ntwrk.05" vlan="10" ipnetwork="10.10.10.0/24" description="Сеть модуля подключения к внешним сетям - гостевая" OID="flix.lan.dc.inet_guest_edge" schema="seaf.ta.services.network">
  <mxCell style="verticalAlign=middle;align=center;vsdxID=35397;rotation=270;fillColor=#c0cfe2;gradientColor=none;shape=stencil(nZFLDsIwDERP4y0KyQKxLuUCnCAihliEpEpL+ZyetANS6YJFs7JnXmxpTKZqvW2YtGq7nC58F9d5MjvSWqLnLF2pyNRkqlPKfM7pFh36xhZSq1Fhhz/rgdbK5uNBXgxts9r+PjAYck39sPwBVMF6foYp9HugQeIE/ZqL4D/oQnC2vhRjPAhOQkC6U38eZ5FwClO/AQ==);strokeColor=#000000;labelBackgroundColor=none;rounded=1;html=1;whiteSpace=wrap;" vertex="1" parent="flix.network_segment.dc.ntwrk.05">
    <mxGeometry x="-10" y="140" width="200" height="20" as="geometry" />
  </mxCell>
</object><object label="&lt;font style=&quot;color: light-dark(rgb(0, 0, 0), rgb(237, 237, 237)); line-height: 140%; font-size: 9px; &quot;&gt;&amp;nbsp;WAN Router&amp;nbsp;&lt;/font&gt;" id="flix.network.dc.router_2" title="WAN Router" description="Пограничный маршрутизатор доступа в корпоративную сеть" realization_type="Физический" model="ASR 1001-X" type="ROUTER" segment_id="flix.network_segment.dc.ntwrk.02" purpose="Пограничный маршрутизатор" address="192.168.8.15" network_connection="['flix.wan.dc.isp.02', 'flix.lan.dc.wan_edge']" OID="flix.network.dc.router_2" schema="seaf.ta.components.network">
      <mxCell style="shape=mxgraph.cisco.routers.router;sketch=0;html=1;pointerEvents=1;dashed=0;fillColor=#036897;strokeColor=#ffffff;strokeWidth=2;verticalLabelPosition=bottom;verticalAlign=top;align=center;outlineConnect=0;labelBackgroundColor=default;fontSize=12;fontColor=#FFFFFF;" parent="flix.network_segment.dc.ntwrk.02" vertex="1">
        <mxGeometry x="20" y="40" width="40" height="30" as="geometry" />
      </mxCell>
</object><object label="&lt;font style=&quot;color: light-dark(rgb(0, 0, 0), rgb(237, 237, 237)); line-height: 140%; font-size: 9px; &quot;&gt;&amp;nbsp;Guest Router&amp;nbsp;&lt;/font&gt;" id="flix.network.dc.router_1" title="Guest Router" description="Пограничный маршрутизатор гостевого интернет провайдера" realization_type="Физический" model="ASR 1001-X" type="ROUTER" segment_id="flix.network_segment.dc.ntwrk.05" purpose="Пограничный маршрутизатор" address="192.168.8.15" network_connection="['flix.wan.dc.isp.01', 'flix.lan.dc.inet_guest_edge']" OID="flix.network.dc.router_1" schema="seaf.ta.components.network">
      <mxCell style="shape=mxgraph.cisco.routers.router;sketch=0;html=1;pointerEvents=1;dashed=0;fillColor=#036897;strokeColor=#ffffff;strokeWidth=2;verticalLabelPosition=bottom;verticalAlign=top;align=center;outlineConnect=0;labelBackgroundColor=default;fontSize=12;fontColor=#FFFFFF;" parent="flix.network_segment.dc.ntwrk.05" vertex="1">
        <mxGeometry x="20" y="40" width="40" height="30" as="geometry" />
      </mxCell>
</object><object label="&lt;font style=&quot;color: light-dark(rgb(0, 0, 0), rgb(237, 237, 237)); line-height: 140%; font-size: 9px; &quot;&gt;&amp;nbsp;NGFW-IDFW&amp;nbsp;&lt;/font&gt;" id="flix.network.вс.fw_1" title="NGFW-IDFW" description="Пограничный NGFW" realization_type="Физический" model="4800F" type="FIREWALL" segment_id="flix.network_segment.dc.ntwrk.01" purpose="Пограничный NGFW транспортной сети" address="192.168.8.23" network_connection="['flix.lan.dc.inet_guest_edge', 'flix.lan.dc.ext.lan']" OID="flix.network.вс.fw_1" schema="seaf.ta.components.network">
  <mxCell style="shape=mxgraph.cisco.security.firewall;html=1;pointerEvents=1;dashed=0;fillColor=#FF0000;strokeColor=#ffffff;strokeWidth=2;verticalLabelPosition=bottom;verticalAlign=top;align=center;outlineConnect=0;flipH=1;" parent="flix.network_segment.dc.ntwrk.01" vertex="1">
    <mxGeometry x="30" y="30" width="20" height="60" as="geometry" />
  </mxCell>
</object><object id="8b5f7bce51d329023b496d9ca8de82a8" label="" source="flix.network.dc.router_1" target="flix.wan.dc.isp.01">
    <mxCell style="endArrow=none;edgeStyle=orthogonalEdgeStyle;rounded=0;curved=0;strokeColor=#FF0000;" edge="1" parent="100" source="flix.network.dc.router_1" target="flix.wan.dc.isp.01">
        <mxGeometry relative="1" as="geometry" />
    </mxCell>
</object><object id="d02d25c8613641d1fa4e489519e829f0" label="" source="flix.network.dc.router_1" target="flix.lan.dc.inet_guest_edge">
    <mxCell style="endArrow=none;edgeStyle=orthogonalEdgeStyle;rounded=0;curved=0;strokeColor=#FF0000;" edge="1" parent="100" source="flix.network.dc.router_1" target="flix.lan.dc.inet_guest_edge">
        <mxGeometry relative="1" as="geometry" />
    </mxCell>
</object><object id="950544e7ae5c0631389efd1a38b5351a" label="" source="flix.network.dc.router_2" target="flix.wan.dc.isp.02">
    <mxCell style="endArrow=none;edgeStyle=orthogonalEdgeStyle;rounded=0;curved=0;strokeColor=#FF0000;" edge="1" parent="100" source="flix.network.dc.router_2" target="flix.wan.dc.isp.02">
        <mxGeometry relative="1" as="geometry" />
    </mxCell>
</object><object id="961ee0ca394063628c8100da5798cb13" label="" source="flix.network.dc.router_2" target="flix.lan.dc.wan_edge">
    <mxCell style="endArrow=none;edgeStyle=orthogonalEdgeStyle;rounded=0;curved=0;strokeColor=#FF0000;" edge="1" parent="100" source="flix.network.dc.router_2" target="flix.lan.dc.wan_edge">
        <mxGeometry relative="1" as="geometry" />
    </mxCell>
</object><object id="cec8cf451e15c3ca029515b4616b661b" label="" source="flix.network.вс.fw_1" target="flix.lan.dc.inet_guest_edge">
    <mxCell style="endArrow=none;edgeStyle=orthogonalEdgeStyle;rounded=0;curved=0;strokeColor=#0000FF;" edge="1" parent="100" source="flix.network.вс.fw_1" target="flix.lan.dc.inet_guest_edge">
        <mxGeometry relative="1" as="geometry" />
    </mxCell>
</object><object id="6a8af4c32f693452308abca177f709a9" label="" source="flix.network.вс.fw_1" target="flix.lan.dc.ext.lan">
    <mxCell style="endArrow=none;edgeStyle=orthogonalEdgeStyle;rounded=0;curved=0;strokeColor=#0000FF;" edge="1" parent="100" source="flix.network.вс.fw_1" target="flix.lan.dc.ext.lan">
        <mxGeometry relative="1" as="geometry" />
    </mxCell>
</object></root>
  </mxGraphModel>
</diagram></mxfile>